<svg xmlns="http://www.w3.org/2000/svg" width="348" height="348" viewBox="0 0 348 348" version="1.1"><path d="M 0 174.003 L 0 348.006 174.250 347.753 L 348.500 347.500 348.753 173.750 L 349.006 0 174.503 0 L 0 0 0 174.003 M 0.489 174.500 C 0.489 270.200, 0.606 309.202, 0.750 261.171 C 0.894 213.140, 0.894 134.840, 0.750 87.171 C 0.606 39.502, 0.489 78.800, 0.489 174.500 M 156.352 10.951 C 118.166 15.366, 85.761 31.090, 58.475 58.443 C 38.476 78.492, 26.278 98.209, 18.151 123.625 C 11.739 143.675, 10.565 151.490, 10.580 174 C 10.594 195.649, 12.240 206.958, 18.004 225 C 22.114 237.869, 32.536 258.465, 40.746 269.945 C 49.477 282.155, 66.011 298.702, 78.018 307.249 C 96.548 320.438, 121.187 331.112, 143.500 335.618 C 156.278 338.198, 191.678 338.232, 204.367 335.677 C 264.001 323.669, 311.329 282.075, 329.923 225.332 C 336.338 205.757, 337.408 198.453, 337.448 174 C 337.486 150.427, 336.277 142.225, 329.874 122.601 C 313.712 73.063, 273.527 33.521, 223.183 17.617 C 203.937 11.538, 175.666 8.718, 156.352 10.951 M 102.389 61.459 C 88.069 64.643, 76.611 74.729, 71.634 88.533 C 70.847 90.715, 67.759 94.999, 64.771 98.054 C 44.433 118.847, 49.842 151.916, 75.668 164.680 C 82.235 167.926, 84.268 168.439, 91.839 168.758 C 97.290 168.988, 102.168 168.620, 105 167.765 C 109.291 166.471, 109.756 166.538, 115 169.214 C 128.227 175.963, 144.452 174.922, 157.166 166.509 C 160.620 164.223, 161.498 164.044, 164.785 164.957 C 177.455 168.476, 189.794 161.395, 193.559 148.445 C 195.517 141.710, 195.033 137.443, 191.548 130.727 C 189.249 126.295, 189.134 125.474, 190.150 120.737 C 190.759 117.899, 191.002 112.216, 190.692 108.109 C 188.985 85.546, 168.654 68.398, 145.873 70.307 C 139.296 70.859, 138.822 70.745, 133.909 67.439 C 125.099 61.510, 112.722 59.162, 102.389 61.459 M 101.365 72.031 C 92.201 74.856, 83.106 84.518, 80.677 94.009 C 79.612 98.171, 78.534 99.897, 75.737 101.917 C 67.075 108.171, 62.791 116.707, 62.834 127.625 C 62.921 149.759, 83.622 164.251, 104.872 157.055 L 111.243 154.897 114.872 157.402 C 120.987 161.625, 125.813 163.127, 133.495 163.198 C 142.008 163.277, 149.247 160.482, 155.755 154.603 L 159.769 150.976 164.841 153.607 C 168.768 155.645, 170.706 156.090, 173.427 155.580 C 178.291 154.667, 182.418 150.886, 183.882 146 C 185.465 140.716, 184.171 136.527, 179.581 132.079 L 176.200 128.802 178.329 124.151 C 181.134 118.025, 181.293 106.441, 178.661 100 C 172.802 85.663, 156.084 77.289, 141.287 81.281 C 136.115 82.677, 136.055 82.667, 133.465 79.963 C 132.029 78.465, 128.530 75.974, 125.690 74.428 C 121.457 72.124, 119.078 71.567, 112.512 71.341 C 108.106 71.189, 103.089 71.500, 101.365 72.031 M 109.500 83 C 108.802 85.200, 107.741 85.467, 105.170 84.091 C 102.983 82.920, 99.775 85.155, 100.038 87.667 C 100.401 91.130, 99.996 92, 98.019 92 C 95.746 92, 93.839 97.113, 95.860 97.787 C 98.586 98.695, 100.014 101.106, 98.975 103.046 C 97.360 106.064, 99.703 109.009, 103.167 108.317 C 105.451 107.860, 106.143 108.220, 107.128 110.382 C 108.618 113.652, 112.556 113.975, 113.530 110.907 C 114.084 109.159, 114.732 108.915, 117.458 109.426 C 121.374 110.161, 123.021 108.621, 122.714 104.511 C 122.541 102.194, 122.982 101.523, 125 101.029 C 128.247 100.235, 129.081 96.095, 126.148 95.329 C 123.681 94.683, 122.703 92.424, 123.913 90.163 C 125.222 87.717, 122.739 84.631, 120.129 85.459 C 118.650 85.928, 117.665 85.418, 116.441 83.550 C 114.396 80.429, 110.416 80.113, 109.500 83 M 106.073 92.635 C 103.450 95.969, 103.438 99.020, 106.039 101.811 C 110.152 106.226, 119 102.750, 119 96.720 C 119 90.610, 109.922 87.741, 106.073 92.635 M 139.750 93.716 C 137.630 94.037, 137 94.682, 137 96.531 C 137 99.349, 134.234 101.135, 131.129 100.323 C 129.760 99.966, 128.191 100.423, 126.959 101.537 C 125.130 103.192, 125.099 103.502, 126.544 105.708 C 128.397 108.536, 127.667 111.654, 124.949 112.516 C 122.889 113.170, 122.653 114.105, 123.630 117.750 C 124.039 119.273, 124.992 120, 126.581 120 C 129.462 120, 130.906 122.514, 130.317 126.500 C 129.981 128.772, 130.384 129.812, 131.976 130.783 C 133.746 131.863, 134.561 131.784, 137.123 130.283 C 140.157 128.506, 140.175 128.510, 142.371 131.250 C 144.953 134.471, 149.738 135.052, 150.604 132.250 C 151.802 128.373, 152.792 127.504, 155.688 127.789 C 159.700 128.183, 162.949 124.750, 161.206 121.958 C 159.307 118.918, 159.785 116.419, 162.500 115.182 C 165.092 114.001, 165.390 113.056, 164.370 109.250 C 163.961 107.727, 163.008 107, 161.419 107 C 158.571 107, 157.008 104.411, 157.693 100.828 C 158.088 98.758, 157.624 97.800, 155.574 96.457 C 153.091 94.830, 152.846 94.830, 151.046 96.458 C 148.755 98.532, 145.374 97.754, 144.484 94.949 C 144.144 93.877, 143.558 93.067, 143.183 93.150 C 142.807 93.232, 141.262 93.487, 139.750 93.716 M 142.333 104.769 C 138.538 105.379, 135 109.529, 135 113.370 C 135 115.277, 135.280 117.565, 135.621 118.455 C 136.382 120.437, 141.132 123, 144.046 123 C 148.888 123, 154 117.909, 154 113.088 C 154 108.669, 147.390 103.956, 142.333 104.769 M 101.811 114.250 C 100.947 114.938, 99.959 116.709, 99.617 118.187 C 99.122 120.322, 98.331 120.938, 95.765 121.187 C 93.253 121.430, 92.316 122.130, 91.545 124.335 C 90.736 126.650, 90.871 127.348, 92.277 128.135 C 94.454 129.354, 94.481 131.811, 92.341 134.175 C 89.985 136.779, 91.883 140.741, 95.696 141.178 C 98.027 141.446, 98.552 142.032, 98.806 144.656 C 99.178 148.488, 103.137 150.091, 105.946 147.549 C 108.317 145.403, 110.499 145.613, 112.184 148.150 C 113.577 150.249, 113.677 150.258, 116.345 148.510 C 117.848 147.525, 118.959 145.995, 118.814 145.109 C 118.404 142.611, 119.880 141, 122.580 141 C 126.207 141, 127.974 136.734, 125.485 133.984 C 123.705 132.017, 123.715 131.877, 125.845 128.996 C 127.707 126.477, 127.847 125.728, 126.778 124.016 C 126.030 122.818, 124.443 122, 122.866 122 C 120.216 122, 119 120.453, 119 117.079 C 119 114.533, 114.523 112.665, 112.953 114.556 C 111.400 116.428, 108.578 116.401, 107 114.500 C 105.483 112.672, 103.891 112.595, 101.811 114.250 M 103.025 124.975 C 96.508 131.492, 103.258 141.898, 112.021 138.843 C 115.637 137.582, 117 135.336, 117 130.638 C 117 124.099, 107.679 120.321, 103.025 124.975 M 210.282 145.049 C 203.867 147.590, 197.211 153.894, 193.953 160.516 C 190.407 167.721, 190.520 179.405, 194.205 186.500 C 205.921 209.065, 236.364 209.827, 248.532 187.859 C 251.208 183.027, 251.499 181.615, 251.493 173.500 C 251.485 163.675, 249.978 159.461, 244.063 152.724 C 236.416 144.015, 221.470 140.619, 210.282 145.049 M 179.500 208.502 C 174.425 210.297, 169.496 215.613, 167.867 221.051 C 166.718 224.884, 166.899 226.490, 169.817 238.388 C 171.586 245.599, 173.922 255.738, 175.009 260.919 C 178.183 276.047, 181.369 280.954, 189.899 283.847 C 192.165 284.616, 203.001 284.993, 222.399 284.978 C 248.834 284.958, 251.884 284.782, 255.688 283.055 C 261.649 280.348, 265.542 274.486, 267.564 265.169 C 268.480 260.951, 270.748 251.200, 272.605 243.500 C 276.839 225.937, 276.918 221.839, 273.135 215.874 C 269.305 209.835, 264.746 207.751, 255.053 207.610 L 247.500 207.500 234.619 232.980 L 221.737 258.459 209.248 233.480 C 202.379 219.741, 196.251 208.169, 195.630 207.765 C 193.747 206.541, 183.757 206.997, 179.500 208.502 M 216.250 214.954 C 213.363 218.742, 211.023 222.440, 211.051 223.171 C 211.079 223.902, 213.498 229.217, 216.427 234.982 L 221.751 245.464 227.390 234.219 L 233.029 222.975 227.393 215.488 C 224.294 211.369, 221.700 208.015, 221.629 208.033 C 221.558 208.052, 219.137 211.166, 216.250 214.954" stroke="none" fill="#f4f3f3" fill-rule="evenodd"/><path d="M 156.352 10.951 C 118.166 15.366, 85.761 31.090, 58.475 58.443 C 38.476 78.492, 26.278 98.209, 18.151 123.625 C 11.739 143.675, 10.565 151.490, 10.580 174 C 10.594 195.649, 12.240 206.958, 18.004 225 C 22.114 237.869, 32.536 258.465, 40.746 269.945 C 49.477 282.155, 66.011 298.702, 78.018 307.249 C 96.548 320.438, 121.187 331.112, 143.500 335.618 C 156.278 338.198, 191.678 338.232, 204.367 335.677 C 264.001 323.669, 311.329 282.075, 329.923 225.332 C 336.338 205.757, 337.408 198.453, 337.448 174 C 337.486 150.427, 336.277 142.225, 329.874 122.601 C 313.712 73.063, 273.527 33.521, 223.183 17.617 C 203.937 11.538, 175.666 8.718, 156.352 10.951 M 102.389 61.459 C 88.069 64.643, 76.611 74.729, 71.634 88.533 C 70.847 90.715, 67.759 94.999, 64.771 98.054 C 44.433 118.847, 49.842 151.916, 75.668 164.680 C 82.235 167.926, 84.268 168.439, 91.839 168.758 C 97.290 168.988, 102.168 168.620, 105 167.765 C 109.291 166.471, 109.756 166.538, 115 169.214 C 128.227 175.963, 144.452 174.922, 157.166 166.509 C 160.620 164.223, 161.498 164.044, 164.785 164.957 C 177.455 168.476, 189.794 161.395, 193.559 148.445 C 195.517 141.710, 195.033 137.443, 191.548 130.727 C 189.249 126.295, 189.134 125.474, 190.150 120.737 C 190.759 117.899, 191.002 112.216, 190.692 108.109 C 188.985 85.546, 168.654 68.398, 145.873 70.307 C 139.296 70.859, 138.822 70.745, 133.909 67.439 C 125.099 61.510, 112.722 59.162, 102.389 61.459 M 101.365 72.031 C 92.201 74.856, 83.106 84.518, 80.677 94.009 C 79.612 98.171, 78.534 99.897, 75.737 101.917 C 67.075 108.171, 62.791 116.707, 62.834 127.625 C 62.921 149.759, 83.622 164.251, 104.872 157.055 L 111.243 154.897 114.872 157.402 C 120.987 161.625, 125.813 163.127, 133.495 163.198 C 142.008 163.277, 149.247 160.482, 155.755 154.603 L 159.769 150.976 164.841 153.607 C 168.768 155.645, 170.706 156.090, 173.427 155.580 C 178.291 154.667, 182.418 150.886, 183.882 146 C 185.465 140.716, 184.171 136.527, 179.581 132.079 L 176.200 128.802 178.329 124.151 C 181.134 118.025, 181.293 106.441, 178.661 100 C 172.802 85.663, 156.084 77.289, 141.287 81.281 C 136.115 82.677, 136.055 82.667, 133.465 79.963 C 132.029 78.465, 128.530 75.974, 125.690 74.428 C 121.457 72.124, 119.078 71.567, 112.512 71.341 C 108.106 71.189, 103.089 71.500, 101.365 72.031 M 109.500 83 C 108.802 85.200, 107.741 85.467, 105.170 84.091 C 102.983 82.920, 99.775 85.155, 100.038 87.667 C 100.401 91.130, 99.996 92, 98.019 92 C 95.746 92, 93.839 97.113, 95.860 97.787 C 98.586 98.695, 100.014 101.106, 98.975 103.046 C 97.360 106.064, 99.703 109.009, 103.167 108.317 C 105.451 107.860, 106.143 108.220, 107.128 110.382 C 108.618 113.652, 112.556 113.975, 113.530 110.907 C 114.084 109.159, 114.732 108.915, 117.458 109.426 C 121.374 110.161, 123.021 108.621, 122.714 104.511 C 122.541 102.194, 122.982 101.523, 125 101.029 C 128.247 100.235, 129.081 96.095, 126.148 95.329 C 123.681 94.683, 122.703 92.424, 123.913 90.163 C 125.222 87.717, 122.739 84.631, 120.129 85.459 C 118.650 85.928, 117.665 85.418, 116.441 83.550 C 114.396 80.429, 110.416 80.113, 109.500 83 M 106.073 92.635 C 103.450 95.969, 103.438 99.020, 106.039 101.811 C 110.152 106.226, 119 102.750, 119 96.720 C 119 90.610, 109.922 87.741, 106.073 92.635 M 139.750 93.716 C 137.630 94.037, 137 94.682, 137 96.531 C 137 99.349, 134.234 101.135, 131.129 100.323 C 129.760 99.966, 128.191 100.423, 126.959 101.537 C 125.130 103.192, 125.099 103.502, 126.544 105.708 C 128.397 108.536, 127.667 111.654, 124.949 112.516 C 122.889 113.170, 122.653 114.105, 123.630 117.750 C 124.039 119.273, 124.992 120, 126.581 120 C 129.462 120, 130.906 122.514, 130.317 126.500 C 129.981 128.772, 130.384 129.812, 131.976 130.783 C 133.746 131.863, 134.561 131.784, 137.123 130.283 C 140.157 128.506, 140.175 128.510, 142.371 131.250 C 144.953 134.471, 149.738 135.052, 150.604 132.250 C 151.802 128.373, 152.792 127.504, 155.688 127.789 C 159.700 128.183, 162.949 124.750, 161.206 121.958 C 159.307 118.918, 159.785 116.419, 162.500 115.182 C 165.092 114.001, 165.390 113.056, 164.370 109.250 C 163.961 107.727, 163.008 107, 161.419 107 C 158.571 107, 157.008 104.411, 157.693 100.828 C 158.088 98.758, 157.624 97.800, 155.574 96.457 C 153.091 94.830, 152.846 94.830, 151.046 96.458 C 148.755 98.532, 145.374 97.754, 144.484 94.949 C 144.144 93.877, 143.558 93.067, 143.183 93.150 C 142.807 93.232, 141.262 93.487, 139.750 93.716 M 142.333 104.769 C 138.538 105.379, 135 109.529, 135 113.370 C 135 115.277, 135.280 117.565, 135.621 118.455 C 136.382 120.437, 141.132 123, 144.046 123 C 148.888 123, 154 117.909, 154 113.088 C 154 108.669, 147.390 103.956, 142.333 104.769 M 101.811 114.250 C 100.947 114.938, 99.959 116.709, 99.617 118.187 C 99.122 120.322, 98.331 120.938, 95.765 121.187 C 93.253 121.430, 92.316 122.130, 91.545 124.335 C 90.736 126.650, 90.871 127.348, 92.277 128.135 C 94.454 129.354, 94.481 131.811, 92.341 134.175 C 89.985 136.779, 91.883 140.741, 95.696 141.178 C 98.027 141.446, 98.552 142.032, 98.806 144.656 C 99.178 148.488, 103.137 150.091, 105.946 147.549 C 108.317 145.403, 110.499 145.613, 112.184 148.150 C 113.577 150.249, 113.677 150.258, 116.345 148.510 C 117.848 147.525, 118.959 145.995, 118.814 145.109 C 118.404 142.611, 119.880 141, 122.580 141 C 126.207 141, 127.974 136.734, 125.485 133.984 C 123.705 132.017, 123.715 131.877, 125.845 128.996 C 127.707 126.477, 127.847 125.728, 126.778 124.016 C 126.030 122.818, 124.443 122, 122.866 122 C 120.216 122, 119 120.453, 119 117.079 C 119 114.533, 114.523 112.665, 112.953 114.556 C 111.400 116.428, 108.578 116.401, 107 114.500 C 105.483 112.672, 103.891 112.595, 101.811 114.250 M 103.025 124.975 C 96.508 131.492, 103.258 141.898, 112.021 138.843 C 115.637 137.582, 117 135.336, 117 130.638 C 117 124.099, 107.679 120.321, 103.025 124.975 M 210.282 145.049 C 203.867 147.590, 197.211 153.894, 193.953 160.516 C 190.407 167.721, 190.520 179.405, 194.205 186.500 C 205.921 209.065, 236.364 209.827, 248.532 187.859 C 251.208 183.027, 251.499 181.615, 251.493 173.500 C 251.485 163.675, 249.978 159.461, 244.063 152.724 C 236.416 144.015, 221.470 140.619, 210.282 145.049 M 179.500 208.502 C 174.425 210.297, 169.496 215.613, 167.867 221.051 C 166.718 224.884, 166.899 226.490, 169.817 238.388 C 171.586 245.599, 173.922 255.738, 175.009 260.919 C 178.183 276.047, 181.369 280.954, 189.899 283.847 C 192.165 284.616, 203.001 284.993, 222.399 284.978 C 248.834 284.958, 251.884 284.782, 255.688 283.055 C 261.649 280.348, 265.542 274.486, 267.564 265.169 C 268.480 260.951, 270.748 251.200, 272.605 243.500 C 276.839 225.937, 276.918 221.839, 273.135 215.874 C 269.305 209.835, 264.746 207.751, 255.053 207.610 L 247.500 207.500 234.619 232.980 L 221.737 258.459 209.248 233.480 C 202.379 219.741, 196.251 208.169, 195.630 207.765 C 193.747 206.541, 183.757 206.997, 179.500 208.502 M 216.250 214.954 C 213.363 218.742, 211.023 222.440, 211.051 223.171 C 211.079 223.902, 213.498 229.217, 216.427 234.982 L 221.751 245.464 227.390 234.219 L 233.029 222.975 227.393 215.488 C 224.294 211.369, 221.700 208.015, 221.629 208.033 C 221.558 208.052, 219.137 211.166, 216.250 214.954" stroke="none" fill="#fcc333" fill-rule="evenodd"/></svg>