<svg xmlns="http://www.w3.org/2000/svg" width="299" height="169" viewBox="0 0 299 169" version="1.1"><path d="M 114 3.277 C 114 4.775, 113.058 6.942, 111.908 8.092 C 110.042 9.958, 109.091 10.112, 103.127 9.513 C 97.971 8.995, 95.470 9.228, 92.215 10.531 C 87.254 12.516, 83 17.153, 83 20.577 C 83 22.064, 82.421 23, 81.500 23 C 78.521 23, 76 26.805, 76 31.303 C 76 36.122, 81.505 48.429, 87.012 55.923 L 90.263 60.346 91.683 57.635 C 92.464 56.145, 93.372 52.657, 93.700 49.885 C 94.241 45.320, 94.118 44.875, 92.399 45.172 C 91.064 45.402, 90.405 44.831, 90.180 43.250 C 89.940 41.555, 90.358 41, 91.876 41 C 93.557 41, 93.941 40.244, 94.195 36.424 L 94.500 31.848 100.334 29.884 C 117.084 24.244, 122.952 13.560, 115.358 2.527 C 114.064 0.647, 114 0.682, 114 3.277 M 275.500 16.043 C 269.450 18.212, 261.306 21.135, 257.401 22.539 L 250.303 25.093 251.358 29.046 C 252.608 33.731, 252.794 33.752, 263.924 30.486 C 268.557 29.127, 272.441 28.124, 272.555 28.257 C 272.960 28.733, 231.993 92.516, 230.758 93.331 C 229.980 93.845, 219.218 90.509, 202.570 84.595 C 187.758 79.332, 175.576 75.133, 175.498 75.264 C 175.353 75.506, 137.856 129.226, 137.402 129.841 C 137.190 130.129, 82.599 109.449, 80.940 108.453 C 80.632 108.268, 73.997 119.678, 66.195 133.809 C 58.393 147.939, 50.812 161.525, 49.348 164 C 47.885 166.475, 46.928 168.275, 47.222 168 C 47.515 167.725, 55.739 157.375, 65.497 145 C 75.255 132.625, 83.567 122.141, 83.967 121.702 C 84.368 121.264, 96.787 125.876, 111.565 131.952 C 126.343 138.029, 138.994 143, 139.677 143 C 140.360 143, 149.005 131.863, 158.888 118.250 C 168.770 104.637, 177.450 92.721, 178.178 91.770 C 179.406 90.163, 181.513 90.701, 207.699 99.299 L 235.897 108.559 258.199 70.792 C 270.464 50.021, 280.837 33.020, 281.250 33.013 C 281.663 33.006, 282 33.882, 282 34.959 C 282 36.037, 282.495 40.243, 283.099 44.307 L 284.198 51.695 288.139 50.975 C 290.306 50.578, 292.315 50.019, 292.602 49.731 C 293.559 48.775, 288.618 11.998, 287.540 12.051 C 286.968 12.078, 281.550 13.875, 275.500 16.043 M 117.188 32.063 C 117.428 32.784, 118.216 33.572, 118.938 33.813 C 119.688 34.063, 120.063 33.688, 119.813 32.938 C 119.572 32.216, 118.784 31.428, 118.063 31.188 C 117.313 30.938, 116.938 31.313, 117.188 32.063 M 100.638 40.500 C 100.955 41.325, 101.616 42, 102.107 42 C 102.598 42, 103 41.325, 103 40.500 C 103 39.675, 102.339 39, 101.531 39 C 100.637 39, 100.288 39.586, 100.638 40.500 M 114.228 41.486 C 108.580 44.103, 107.559 46.386, 111.278 48.081 C 115.975 50.221, 122.638 44.749, 120.339 40.641 C 119.556 39.242, 118.864 39.338, 114.228 41.486 M 126.420 46.130 C 125.229 48.056, 110.019 54.663, 99 58.041 C 93.225 59.811, 88.377 61.362, 88.226 61.487 C 87.199 62.340, 89.457 64.693, 90.933 64.307 C 92.750 63.832, 95.740 68.353, 102.474 81.761 C 105.510 87.805, 105.496 87.637, 103 88.290 C 100.421 88.964, 100.076 95, 102.617 95 C 103.741 95, 104.074 94.391, 103.710 93 C 103.272 91.326, 103.680 91, 106.210 91 C 109.305 91, 109.458 90.474, 107.887 85.202 C 107.631 84.344, 110.376 82.962, 116 81.119 C 124.606 78.298, 133.353 74.257, 138.103 70.909 L 140.705 69.074 141.893 73.037 C 142.546 75.217, 143.472 77, 143.951 77 C 145.580 77, 149.919 70.952, 149.351 69.473 C 148.557 67.403, 147.367 67.638, 145.557 70.223 L 144 72.445 144 69.845 C 144 66.022, 141.484 64.252, 139.107 66.403 C 137.327 68.014, 137.104 67.705, 133.645 58.822 C 131.499 53.313, 130.404 49.196, 130.941 48.659 C 131.437 48.163, 131.606 47.136, 131.315 46.378 C 130.677 44.717, 127.396 44.551, 126.420 46.130 M 48.750 64.807 C 44.487 66.795, 41 68.916, 41 69.520 C 41 70.802, 50.348 92.681, 51.305 93.638 C 51.981 94.314, 66.819 89.331, 68.417 87.892 C 68.962 87.401, 68.578 85.390, 67.470 82.933 C 65.717 79.046, 65.708 78.743, 67.324 77.839 C 69.047 76.874, 68.756 75, 66.882 75 C 66.332 75, 66.160 75.450, 66.500 76 C 66.840 76.550, 66.657 77, 66.094 77 C 64.995 77, 63 73.818, 63 72.066 C 63 71.480, 63.661 71, 64.469 71 C 65.311 71, 65.710 70.408, 65.404 69.611 C 65.111 68.846, 64.080 68.428, 63.115 68.680 C 61.807 69.022, 60.949 68.099, 59.760 65.070 C 58.880 62.831, 57.787 61.043, 57.330 61.097 C 56.874 61.150, 53.013 62.820, 48.750 64.807" stroke="none" fill="#2f6262" fill-rule="evenodd"/><path d="M 0 84.503 L 0 169.007 149.750 168.753 L 299.500 168.500 299.756 84.250 L 300.011 0 150.006 0 L 0 0 0 84.503 M 0.478 85 C 0.478 131.475, 0.600 150.488, 0.750 127.250 C 0.899 104.013, 0.899 65.988, 0.750 42.750 C 0.600 19.513, 0.478 38.525, 0.478 85 M 114 3.277 C 114 4.775, 113.058 6.942, 111.908 8.092 C 110.042 9.958, 109.091 10.112, 103.127 9.513 C 97.971 8.995, 95.470 9.228, 92.215 10.531 C 87.254 12.516, 83 17.153, 83 20.577 C 83 22.064, 82.421 23, 81.500 23 C 78.521 23, 76 26.805, 76 31.303 C 76 36.122, 81.505 48.429, 87.012 55.923 L 90.263 60.346 91.683 57.635 C 92.464 56.145, 93.372 52.657, 93.700 49.885 C 94.241 45.320, 94.118 44.875, 92.399 45.172 C 91.064 45.402, 90.405 44.831, 90.180 43.250 C 89.940 41.555, 90.358 41, 91.876 41 C 93.557 41, 93.941 40.244, 94.195 36.424 L 94.500 31.848 100.334 29.884 C 117.084 24.244, 122.952 13.560, 115.358 2.527 C 114.064 0.647, 114 0.682, 114 3.277 M 275.500 16.043 C 269.450 18.212, 261.306 21.135, 257.401 22.539 L 250.303 25.093 251.358 29.046 C 252.608 33.731, 252.794 33.752, 263.924 30.486 C 268.557 29.127, 272.441 28.124, 272.555 28.257 C 272.960 28.733, 231.993 92.516, 230.758 93.331 C 229.980 93.845, 219.218 90.509, 202.570 84.595 C 187.758 79.332, 175.576 75.133, 175.498 75.264 C 175.353 75.506, 137.856 129.226, 137.402 129.841 C 137.190 130.129, 82.599 109.449, 80.940 108.453 C 80.632 108.268, 73.997 119.678, 66.195 133.809 C 58.393 147.939, 50.812 161.525, 49.348 164 C 47.885 166.475, 46.928 168.275, 47.222 168 C 47.515 167.725, 55.739 157.375, 65.497 145 C 75.255 132.625, 83.567 122.141, 83.967 121.702 C 84.368 121.264, 96.787 125.876, 111.565 131.952 C 126.343 138.029, 138.994 143, 139.677 143 C 140.360 143, 149.005 131.863, 158.888 118.250 C 168.770 104.637, 177.450 92.721, 178.178 91.770 C 179.406 90.163, 181.513 90.701, 207.699 99.299 L 235.897 108.559 258.199 70.792 C 270.464 50.021, 280.837 33.020, 281.250 33.013 C 281.663 33.006, 282 33.882, 282 34.959 C 282 36.037, 282.495 40.243, 283.099 44.307 L 284.198 51.695 288.139 50.975 C 290.306 50.578, 292.315 50.019, 292.602 49.731 C 293.559 48.775, 288.618 11.998, 287.540 12.051 C 286.968 12.078, 281.550 13.875, 275.500 16.043 M 117.188 32.063 C 117.428 32.784, 118.216 33.572, 118.938 33.813 C 119.688 34.063, 120.063 33.688, 119.813 32.938 C 119.572 32.216, 118.784 31.428, 118.063 31.188 C 117.313 30.938, 116.938 31.313, 117.188 32.063 M 100.638 40.500 C 100.955 41.325, 101.616 42, 102.107 42 C 102.598 42, 103 41.325, 103 40.500 C 103 39.675, 102.339 39, 101.531 39 C 100.637 39, 100.288 39.586, 100.638 40.500 M 114.228 41.486 C 108.580 44.103, 107.559 46.386, 111.278 48.081 C 115.975 50.221, 122.638 44.749, 120.339 40.641 C 119.556 39.242, 118.864 39.338, 114.228 41.486 M 126.420 46.130 C 125.229 48.056, 110.019 54.663, 99 58.041 C 93.225 59.811, 88.377 61.362, 88.226 61.487 C 87.199 62.340, 89.457 64.693, 90.933 64.307 C 92.750 63.832, 95.740 68.353, 102.474 81.761 C 105.510 87.805, 105.496 87.637, 103 88.290 C 100.421 88.964, 100.076 95, 102.617 95 C 103.741 95, 104.074 94.391, 103.710 93 C 103.272 91.326, 103.680 91, 106.210 91 C 109.305 91, 109.458 90.474, 107.887 85.202 C 107.631 84.344, 110.376 82.962, 116 81.119 C 124.606 78.298, 133.353 74.257, 138.103 70.909 L 140.705 69.074 141.893 73.037 C 142.546 75.217, 143.472 77, 143.951 77 C 145.580 77, 149.919 70.952, 149.351 69.473 C 148.557 67.403, 147.367 67.638, 145.557 70.223 L 144 72.445 144 69.845 C 144 66.022, 141.484 64.252, 139.107 66.403 C 137.327 68.014, 137.104 67.705, 133.645 58.822 C 131.499 53.313, 130.404 49.196, 130.941 48.659 C 131.437 48.163, 131.606 47.136, 131.315 46.378 C 130.677 44.717, 127.396 44.551, 126.420 46.130 M 48.750 64.807 C 44.487 66.795, 41 68.916, 41 69.520 C 41 70.802, 50.348 92.681, 51.305 93.638 C 51.981 94.314, 66.819 89.331, 68.417 87.892 C 68.962 87.401, 68.578 85.390, 67.470 82.933 C 65.717 79.046, 65.708 78.743, 67.324 77.839 C 69.047 76.874, 68.756 75, 66.882 75 C 66.332 75, 66.160 75.450, 66.500 76 C 66.840 76.550, 66.657 77, 66.094 77 C 64.995 77, 63 73.818, 63 72.066 C 63 71.480, 63.661 71, 64.469 71 C 65.311 71, 65.710 70.408, 65.404 69.611 C 65.111 68.846, 64.080 68.428, 63.115 68.680 C 61.807 69.022, 60.949 68.099, 59.760 65.070 C 58.880 62.831, 57.787 61.043, 57.330 61.097 C 56.874 61.150, 53.013 62.820, 48.750 64.807" stroke="none" fill="#faf8f8" fill-rule="evenodd"/></svg>