<svg xmlns="http://www.w3.org/2000/svg" width="301" height="167" viewBox="0 0 301 167" version="1.1"><path d="M 187.432 19.443 C 166.189 24.935, 147.790 38.484, 134.548 58.384 C 129.201 66.420, 122 81.215, 122 84.164 C 122 84.913, 128.251 91.766, 135.892 99.392 L 149.784 113.258 160.385 108.194 C 198.265 90.099, 217.878 61.513, 217.980 24.250 L 218 17 207.250 17.049 C 199.346 17.085, 194.099 17.719, 187.432 19.443 M 177.763 39.565 C 174.224 41.485, 172 45.866, 172 50.916 C 172 55.778, 176.466 61.504, 181.042 62.509 C 191.001 64.697, 199.469 54.844, 195.596 45.575 C 192.863 39.035, 184.151 36.099, 177.763 39.565 M 115.618 53.112 C 109.905 54.454, 100.460 59.781, 94.844 64.830 C 90.276 68.937, 83.152 78, 84.492 78 C 84.815 78, 86.974 77.008, 89.290 75.795 C 95.070 72.768, 103.946 72.777, 109.750 75.816 C 112.993 77.513, 114 77.710, 114 76.644 C 114 75.876, 116.653 70.016, 119.895 63.623 L 125.791 52 122.645 52.100 C 120.915 52.156, 117.753 52.611, 115.618 53.112 M 160.017 64.286 C 154.681 66.986, 154.920 75.237, 160.410 77.868 C 162.886 79.055, 163.724 79.025, 166.610 77.649 C 172.247 74.961, 172.494 67.341, 167.035 64.518 C 163.507 62.694, 163.184 62.683, 160.017 64.286 M 91.200 100.843 C 86.346 103.432, 84.014 107.571, 84.007 113.615 C 84.002 117.219, 84.589 119.480, 85.994 121.266 C 87.595 123.301, 87.867 124.694, 87.369 128.325 C 85.964 138.577, 94.577 147.511, 105.246 146.869 C 109.018 146.643, 111.246 147.053, 113.144 148.323 C 117.498 151.235, 122.305 151.515, 127.207 149.142 C 132.096 146.775, 134.626 143.193, 135.568 137.303 C 136.148 133.676, 135.982 133.227, 133.855 132.658 C 129.972 131.618, 129 131.897, 129 134.050 C 129 136.882, 126.410 141.629, 124.455 142.379 C 120.975 143.714, 117.737 142.930, 115.107 140.114 C 112.531 137.356, 112.285 137.295, 109.561 138.722 C 106.407 140.375, 100.811 139.917, 98.256 137.798 C 97.395 137.084, 96.083 135.048, 95.342 133.274 C 94.201 130.545, 94.213 129.411, 95.419 125.909 C 96.807 121.880, 96.776 121.711, 94.223 119.515 C 89.083 115.094, 91.855 106.031, 98.361 105.985 C 101.727 105.961, 102.863 104.736, 102.292 101.747 C 101.832 99.341, 101.316 99.005, 98.133 99.042 C 96.135 99.065, 93.015 99.876, 91.200 100.843 M 116.517 103.599 C 114.327 105.532, 110.389 108.098, 107.767 109.301 C 102.917 111.526, 102.172 113.046, 103.849 117.294 C 104.497 118.935, 105.149 118.787, 111.528 115.559 C 115.363 113.618, 120.300 110.490, 122.500 108.607 L 126.500 105.184 124.076 102.592 C 122.742 101.167, 121.392 100.019, 121.076 100.042 C 120.759 100.065, 118.708 101.665, 116.517 103.599 M 124.999 113.190 C 120.846 118.360, 116.029 127.232, 116.010 129.750 C 116.004 130.438, 116.863 131, 117.918 131 C 118.973 131, 120.501 131.255, 121.314 131.567 C 122.363 131.970, 123.515 130.556, 125.281 126.697 C 126.650 123.707, 129.384 119.474, 131.357 117.290 L 134.944 113.320 132.105 110.600 L 129.266 107.880 124.999 113.190 M 174.500 112.546 C 170.100 114.988, 164.475 117.744, 162 118.671 C 159.525 119.597, 157.398 120.414, 157.274 120.487 C 157.149 120.560, 157.937 122.960, 159.024 125.820 C 161.785 133.088, 161.563 138.601, 158.244 145.181 L 155.489 150.644 158.994 148.614 C 169.687 142.423, 180.492 126.158, 181.912 114.114 C 182.309 110.752, 182.603 108.024, 182.566 108.053 C 182.530 108.082, 178.900 110.104, 174.500 112.546" stroke="none" fill="#c3222a" fill-rule="evenodd"/><path d="M 0 83.503 L 0 167.006 150.750 166.753 L 301.500 166.500 301.756 83.250 L 302.011 0 151.006 0 L 0 0 0 83.503 M 0.477 84 C 0.477 129.925, 0.600 148.713, 0.750 125.750 C 0.899 102.788, 0.899 65.213, 0.750 42.250 C 0.600 19.288, 0.477 38.075, 0.477 84 M 187.432 19.443 C 166.189 24.935, 147.790 38.484, 134.548 58.384 C 129.201 66.420, 122 81.215, 122 84.164 C 122 84.913, 128.251 91.766, 135.892 99.392 L 149.784 113.258 160.385 108.194 C 198.265 90.099, 217.878 61.513, 217.980 24.250 L 218 17 207.250 17.049 C 199.346 17.085, 194.099 17.719, 187.432 19.443 M 177.763 39.565 C 174.224 41.485, 172 45.866, 172 50.916 C 172 55.778, 176.466 61.504, 181.042 62.509 C 191.001 64.697, 199.469 54.844, 195.596 45.575 C 192.863 39.035, 184.151 36.099, 177.763 39.565 M 115.618 53.112 C 109.905 54.454, 100.460 59.781, 94.844 64.830 C 90.276 68.937, 83.152 78, 84.492 78 C 84.815 78, 86.974 77.008, 89.290 75.795 C 95.070 72.768, 103.946 72.777, 109.750 75.816 C 112.993 77.513, 114 77.710, 114 76.644 C 114 75.876, 116.653 70.016, 119.895 63.623 L 125.791 52 122.645 52.100 C 120.915 52.156, 117.753 52.611, 115.618 53.112 M 160.017 64.286 C 154.681 66.986, 154.920 75.237, 160.410 77.868 C 162.886 79.055, 163.724 79.025, 166.610 77.649 C 172.247 74.961, 172.494 67.341, 167.035 64.518 C 163.507 62.694, 163.184 62.683, 160.017 64.286 M 91.200 100.843 C 86.346 103.432, 84.014 107.571, 84.007 113.615 C 84.002 117.219, 84.589 119.480, 85.994 121.266 C 87.595 123.301, 87.867 124.694, 87.369 128.325 C 85.964 138.577, 94.577 147.511, 105.246 146.869 C 109.018 146.643, 111.246 147.053, 113.144 148.323 C 117.498 151.235, 122.305 151.515, 127.207 149.142 C 132.096 146.775, 134.626 143.193, 135.568 137.303 C 136.148 133.676, 135.982 133.227, 133.855 132.658 C 129.972 131.618, 129 131.897, 129 134.050 C 129 136.882, 126.410 141.629, 124.455 142.379 C 120.975 143.714, 117.737 142.930, 115.107 140.114 C 112.531 137.356, 112.285 137.295, 109.561 138.722 C 106.407 140.375, 100.811 139.917, 98.256 137.798 C 97.395 137.084, 96.083 135.048, 95.342 133.274 C 94.201 130.545, 94.213 129.411, 95.419 125.909 C 96.807 121.880, 96.776 121.711, 94.223 119.515 C 89.083 115.094, 91.855 106.031, 98.361 105.985 C 101.727 105.961, 102.863 104.736, 102.292 101.747 C 101.832 99.341, 101.316 99.005, 98.133 99.042 C 96.135 99.065, 93.015 99.876, 91.200 100.843 M 116.517 103.599 C 114.327 105.532, 110.389 108.098, 107.767 109.301 C 102.917 111.526, 102.172 113.046, 103.849 117.294 C 104.497 118.935, 105.149 118.787, 111.528 115.559 C 115.363 113.618, 120.300 110.490, 122.500 108.607 L 126.500 105.184 124.076 102.592 C 122.742 101.167, 121.392 100.019, 121.076 100.042 C 120.759 100.065, 118.708 101.665, 116.517 103.599 M 124.999 113.190 C 120.846 118.360, 116.029 127.232, 116.010 129.750 C 116.004 130.438, 116.863 131, 117.918 131 C 118.973 131, 120.501 131.255, 121.314 131.567 C 122.363 131.970, 123.515 130.556, 125.281 126.697 C 126.650 123.707, 129.384 119.474, 131.357 117.290 L 134.944 113.320 132.105 110.600 L 129.266 107.880 124.999 113.190 M 174.500 112.546 C 170.100 114.988, 164.475 117.744, 162 118.671 C 159.525 119.597, 157.398 120.414, 157.274 120.487 C 157.149 120.560, 157.937 122.960, 159.024 125.820 C 161.785 133.088, 161.563 138.601, 158.244 145.181 L 155.489 150.644 158.994 148.614 C 169.687 142.423, 180.492 126.158, 181.912 114.114 C 182.309 110.752, 182.603 108.024, 182.566 108.053 C 182.530 108.082, 178.900 110.104, 174.500 112.546" stroke="none" fill="#f3f3f3" fill-rule="evenodd"/></svg>