<svg xmlns="http://www.w3.org/2000/svg" width="920" height="823" viewBox="0 0 920 823" version="1.1"><path d="M 0 411.500 L 0 823 31.500 823 L 63 823 63 808.684 C 63 800.810, 63.481 791.697, 64.070 788.434 C 67.002 772.166, 81.494 754.220, 98.424 745.890 L 107.347 741.500 183.914 741.226 C 257.957 740.960, 260.695 741.017, 266.990 742.944 C 284.298 748.241, 300.351 763.187, 306.002 779.267 C 308.787 787.191, 309.957 796.448, 309.980 810.750 L 310 823 323.500 823 L 337 823 337 808.210 C 337 791.739, 338.181 785.328, 343.062 775.296 C 349.928 761.183, 358.656 752.885, 374.686 745.231 L 382.500 741.500 458.418 741.226 C 543.354 740.918, 537.036 740.441, 552.500 748.329 C 562.970 753.669, 572.836 763.289, 577.026 772.242 C 581.303 781.381, 582.971 790.283, 583.681 807.750 L 584.301 823 597.651 823 L 611 823 611.017 808.750 C 611.028 800.266, 611.614 791.766, 612.467 787.743 C 614.623 777.566, 620.254 767.739, 628.989 758.904 C 637.185 750.616, 642.835 746.901, 652.676 743.329 L 659.091 741 734.011 741 C 817.073 741, 811.121 740.556, 825.877 747.852 C 830.159 749.970, 836.063 754.093, 839.950 757.680 C 852.293 769.071, 856.653 781.259, 857.687 807.264 L 858.314 823.028 889.407 822.764 L 920.500 822.500 920.751 411.250 L 921.002 0 693.751 0.130 C 568.763 0.201, 469.673 0.630, 473.552 1.083 C 481.682 2.033, 495.247 6.097, 502.500 9.755 C 538.575 27.950, 560.782 68.348, 556.072 107.210 C 551.904 141.600, 532.736 169.087, 503.506 182.593 C 490.774 188.475, 478.488 191.144, 461.500 191.718 C 448.548 192.155, 445.298 191.936, 437.699 190.119 C 403.892 182.031, 375.045 153.344, 367.008 119.818 C 364.196 108.087, 364.196 84.913, 367.008 73.182 C 370.959 56.700, 379.872 41.315, 393.339 27.732 C 407.328 13.622, 429.559 3.230, 450.500 1.013 C 454.350 0.605, 354.563 0.210, 228.750 0.136 L 0 0 0 411.500 M 0.495 412 C 0.495 638.325, 0.610 730.912, 0.750 617.750 C 0.890 504.587, 0.890 319.412, 0.750 206.250 C 0.610 93.087, 0.495 185.675, 0.495 412 M 338.347 221.985 C 315.659 227.933, 295.032 247.707, 286.899 271.306 C 282.987 282.659, 282.107 292.881, 282.084 327.250 L 282.065 357 460.532 357 L 639 357 638.994 326.750 C 638.988 293.734, 637.966 282.961, 633.628 270.165 C 629.900 259.170, 625.501 252.509, 615 241.960 C 606.966 233.889, 604.034 231.683, 596 227.664 C 583.199 221.260, 577.931 220.026, 563.323 220.012 L 551.146 220 548.323 223.433 C 546.770 225.321, 544.403 229.708, 543.062 233.183 C 541.721 236.657, 535.365 250.075, 528.936 263 C 515.897 289.217, 507.582 307.048, 504.967 314.397 L 503.226 319.294 500.016 314.897 C 495.896 309.252, 484.016 289.193, 480.399 281.776 L 477.609 276.051 480.838 272.276 C 485.796 266.479, 489.916 259.939, 491.069 256.035 C 491.644 254.091, 492.361 248, 492.662 242.500 C 493.174 233.170, 493.053 232.265, 490.854 229 C 489.520 227.019, 486.327 224.415, 483.499 223 C 478.707 220.604, 477.734 220.500, 460 220.500 C 442.120 220.500, 441.351 220.584, 437.051 223 C 434.604 224.375, 431.738 226.983, 430.682 228.796 C 426.861 235.355, 427.551 252.279, 431.994 260.988 C 432.987 262.934, 435.869 267.040, 438.399 270.114 C 440.930 273.188, 443 276.072, 443 276.523 C 443 276.974, 440.141 282.329, 436.647 288.422 C 433.153 294.515, 428.575 302.650, 426.474 306.500 C 422.266 314.209, 418.995 319, 417.937 319 C 417.559 319, 416.997 317.733, 416.687 316.184 C 415.970 312.599, 407.629 294.458, 391.546 261.500 C 384.568 247.200, 377.736 232.800, 376.365 229.500 C 372.549 220.318, 371.899 219.990, 357.639 220.055 C 349.132 220.094, 343.360 220.671, 338.347 221.985 M 189.500 384.935 C 185.268 385.965, 180.872 388.412, 178.298 391.169 C 173.710 396.082, 173 399.767, 173 418.652 C 173 434.230, 173.238 436.859, 174.968 440.434 C 177.592 445.854, 247.940 516.005, 253.500 518.746 C 259.068 521.492, 264.368 522.117, 275.758 521.371 L 285.576 520.727 284.324 512.114 C 283.635 507.376, 282.763 496.685, 282.385 488.355 L 281.698 473.211 284.221 470.688 C 285.609 469.300, 288.490 467.680, 290.622 467.088 C 293.323 466.338, 345.192 466.023, 461.500 466.049 C 639.335 466.090, 634.625 465.966, 637.429 470.694 C 638.018 471.687, 638.784 473.752, 639.130 475.282 C 639.790 478.194, 637.624 508.140, 636.176 516.125 L 635.337 520.750 645.453 521.427 C 655.996 522.134, 662.637 521.243, 668.352 518.356 C 673.377 515.818, 743.907 445.180, 746.090 440.500 C 747.694 437.062, 747.956 433.972, 747.956 418.500 C 747.956 398.642, 747.176 395.242, 741.376 389.803 C 734.683 383.527, 757.409 383.990, 461.782 384.102 C 313.677 384.159, 191.150 384.533, 189.500 384.935 M 310.005 495.250 C 310.015 498.019, 317.064 582.519, 318.450 596.500 C 319.268 604.750, 320.391 618.025, 320.945 626 C 321.499 633.975, 322.617 647.250, 323.430 655.500 C 327.214 693.905, 330.036 725.063, 330.257 730.874 L 330.500 737.248 339.500 730.100 C 349.826 721.898, 365.246 713.842, 375.500 711.294 C 379.350 710.337, 382.636 709.481, 382.802 709.391 C 382.968 709.302, 380.661 705.465, 377.675 700.864 C 370.572 689.921, 367.580 683.857, 364.044 673.237 C 356.525 650.661, 358.584 623.727, 369.529 601.471 C 383.820 572.413, 410.080 551.979, 441.407 545.542 C 451.534 543.462, 470.349 543.435, 480.286 545.487 C 501.477 549.865, 516.571 558.161, 532 573.913 C 542.862 585.001, 549.531 595.349, 554.720 609.163 C 559.543 622.004, 561.187 631.392, 561.171 646 C 561.149 666.286, 555.740 683.140, 543.573 700.837 C 540.421 705.423, 537.990 709.260, 538.171 709.364 C 538.352 709.468, 541.650 710.335, 545.500 711.290 C 554.693 713.571, 568.910 720.511, 576.891 726.613 C 590.408 736.948, 591 737.078, 591 729.708 C 591 726.798, 592.338 710.035, 593.973 692.458 C 595.607 674.881, 597.870 650.150, 599.001 637.500 C 600.131 624.850, 602.427 599.425, 604.102 581 C 609.934 516.864, 610.979 504.468, 610.989 499.250 L 611 494 460.500 494 C 340.764 494, 310.001 494.256, 310.005 495.250 M 170.293 577.445 C 148.982 582.293, 128.613 600.907, 120.903 622.580 C 118.213 630.142, 117.157 650.017, 118.956 659.229 C 123.283 681.389, 142.006 702.525, 164 710.081 C 172.079 712.857, 191.798 713.887, 201.291 712.029 C 214.756 709.394, 229.775 700.063, 239.491 688.296 C 251.225 674.086, 255.571 660.659, 254.748 641.161 C 253.931 621.793, 248.515 609.455, 234.925 596 C 226.256 587.417, 219.296 582.957, 208.835 579.281 C 202.792 577.158, 199.297 576.644, 189 576.368 C 180.689 576.145, 174.420 576.506, 170.293 577.445 M 444.289 577.446 C 423.290 582.222, 402.603 601.286, 394.857 623 C 392.829 628.686, 392.536 631.378, 392.519 644.500 C 392.504 656.574, 392.865 660.573, 394.373 665 C 401.389 685.601, 418.004 702.933, 437.324 709.804 C 446.736 713.152, 466.785 714.059, 477.243 711.610 C 496.307 707.148, 513.693 692.662, 522.982 673.500 C 528.110 662.920, 529.353 655.899, 528.770 640.791 C 528.388 630.899, 527.804 627.184, 525.775 621.758 C 521.935 611.489, 517.246 604.300, 508.993 596.026 C 500.621 587.634, 491.739 581.986, 482 578.862 C 473.516 576.141, 453.355 575.384, 444.289 577.446 M 720 577.047 C 716.975 577.564, 710.225 580.080, 705 582.639 C 696.971 586.570, 694.092 588.700, 686.404 596.395 C 678.911 603.895, 676.506 607.110, 672.764 614.631 C 667.165 625.884, 665.566 634.320, 666.261 648.932 C 667.137 667.358, 672.750 679.725, 686.500 693.533 C 700.325 707.415, 714.044 712.970, 734.500 712.970 C 755.207 712.970, 768.606 707.468, 783.037 693.037 C 797.379 678.695, 802.957 665.206, 802.985 644.799 C 803.004 631.017, 801.829 625.580, 796.377 614.215 C 788.770 598.363, 772.551 584.163, 756 578.867 C 748.519 576.473, 729.105 575.492, 720 577.047" stroke="none" fill="#f0f0f0" fill-rule="evenodd"/><path d="M 450.500 1.013 C 429.559 3.230, 407.328 13.622, 393.339 27.732 C 379.872 41.315, 370.959 56.700, 367.008 73.182 C 364.196 84.913, 364.196 108.087, 367.008 119.818 C 375.045 153.344, 403.892 182.031, 437.699 190.119 C 450.174 193.103, 472.006 192.410, 486.384 188.574 C 519.640 179.701, 542.030 158.267, 552.314 125.460 C 563.293 90.438, 553.136 52.408, 525.867 26.435 C 510.627 11.919, 492.526 3.342, 472.223 1.016 C 462.658 -0.080, 460.823 -0.080, 450.500 1.013 M 338.347 221.985 C 315.659 227.933, 295.032 247.707, 286.899 271.306 C 282.987 282.659, 282.107 292.881, 282.084 327.250 L 282.065 357 460.532 357 L 639 357 638.994 326.750 C 638.988 293.734, 637.966 282.961, 633.628 270.165 C 629.900 259.170, 625.501 252.509, 615 241.960 C 606.966 233.889, 604.034 231.683, 596 227.664 C 583.199 221.260, 577.931 220.026, 563.323 220.012 L 551.146 220 548.323 223.433 C 546.770 225.321, 544.403 229.708, 543.062 233.183 C 541.721 236.657, 535.365 250.075, 528.936 263 C 515.897 289.217, 507.582 307.048, 504.967 314.397 L 503.226 319.294 500.016 314.897 C 495.896 309.252, 484.016 289.193, 480.399 281.776 L 477.609 276.051 480.838 272.276 C 485.796 266.479, 489.916 259.939, 491.069 256.035 C 491.644 254.091, 492.361 248, 492.662 242.500 C 493.174 233.170, 493.053 232.265, 490.854 229 C 489.520 227.019, 486.327 224.415, 483.499 223 C 478.707 220.604, 477.734 220.500, 460 220.500 C 442.120 220.500, 441.351 220.584, 437.051 223 C 434.604 224.375, 431.738 226.983, 430.682 228.796 C 426.861 235.355, 427.551 252.279, 431.994 260.988 C 432.987 262.934, 435.869 267.040, 438.399 270.114 C 440.930 273.188, 443 276.072, 443 276.523 C 443 276.974, 440.141 282.329, 436.647 288.422 C 433.153 294.515, 428.575 302.650, 426.474 306.500 C 422.266 314.209, 418.995 319, 417.937 319 C 417.559 319, 416.997 317.733, 416.687 316.184 C 415.970 312.599, 407.629 294.458, 391.546 261.500 C 384.568 247.200, 377.736 232.800, 376.365 229.500 C 372.549 220.318, 371.899 219.990, 357.639 220.055 C 349.132 220.094, 343.360 220.671, 338.347 221.985 M 189.500 384.935 C 185.268 385.965, 180.872 388.412, 178.298 391.169 C 173.710 396.082, 173 399.767, 173 418.652 C 173 434.230, 173.238 436.859, 174.968 440.434 C 177.592 445.854, 247.940 516.005, 253.500 518.746 C 259.068 521.492, 264.368 522.117, 275.758 521.371 L 285.576 520.727 284.324 512.114 C 283.635 507.376, 282.763 496.685, 282.385 488.355 L 281.698 473.211 284.221 470.688 C 285.609 469.300, 288.490 467.680, 290.622 467.088 C 293.323 466.338, 345.192 466.023, 461.500 466.049 C 639.335 466.090, 634.625 465.966, 637.429 470.694 C 638.018 471.687, 638.784 473.752, 639.130 475.282 C 639.790 478.194, 637.624 508.140, 636.176 516.125 L 635.337 520.750 645.453 521.427 C 655.996 522.134, 662.637 521.243, 668.352 518.356 C 673.377 515.818, 743.907 445.180, 746.090 440.500 C 747.694 437.062, 747.956 433.972, 747.956 418.500 C 747.956 398.642, 747.176 395.242, 741.376 389.803 C 734.683 383.527, 757.409 383.990, 461.782 384.102 C 313.677 384.159, 191.150 384.533, 189.500 384.935 M 310.005 495.250 C 310.015 498.019, 317.064 582.519, 318.450 596.500 C 319.268 604.750, 320.391 618.025, 320.945 626 C 321.499 633.975, 322.617 647.250, 323.430 655.500 C 327.214 693.905, 330.036 725.063, 330.257 730.874 L 330.500 737.248 339.500 730.100 C 349.826 721.898, 365.246 713.842, 375.500 711.294 C 379.350 710.337, 382.636 709.481, 382.802 709.391 C 382.968 709.302, 380.661 705.465, 377.675 700.864 C 370.572 689.921, 367.580 683.857, 364.044 673.237 C 356.525 650.661, 358.584 623.727, 369.529 601.471 C 383.820 572.413, 410.080 551.979, 441.407 545.542 C 451.534 543.462, 470.349 543.435, 480.286 545.487 C 501.477 549.865, 516.571 558.161, 532 573.913 C 542.862 585.001, 549.531 595.349, 554.720 609.163 C 559.543 622.004, 561.187 631.392, 561.171 646 C 561.149 666.286, 555.740 683.140, 543.573 700.837 C 540.421 705.423, 537.990 709.260, 538.171 709.364 C 538.352 709.468, 541.650 710.335, 545.500 711.290 C 554.693 713.571, 568.910 720.511, 576.891 726.613 C 590.408 736.948, 591 737.078, 591 729.708 C 591 726.798, 592.338 710.035, 593.973 692.458 C 595.607 674.881, 597.870 650.150, 599.001 637.500 C 600.131 624.850, 602.427 599.425, 604.102 581 C 609.934 516.864, 610.979 504.468, 610.989 499.250 L 611 494 460.500 494 C 340.764 494, 310.001 494.256, 310.005 495.250 M 170.293 577.445 C 148.982 582.293, 128.613 600.907, 120.903 622.580 C 118.213 630.142, 117.157 650.017, 118.956 659.229 C 123.283 681.389, 142.006 702.525, 164 710.081 C 172.079 712.857, 191.798 713.887, 201.291 712.029 C 214.756 709.394, 229.775 700.063, 239.491 688.296 C 251.225 674.086, 255.571 660.659, 254.748 641.161 C 253.931 621.793, 248.515 609.455, 234.925 596 C 226.256 587.417, 219.296 582.957, 208.835 579.281 C 202.792 577.158, 199.297 576.644, 189 576.368 C 180.689 576.145, 174.420 576.506, 170.293 577.445 M 444.289 577.446 C 423.290 582.222, 402.603 601.286, 394.857 623 C 392.829 628.686, 392.536 631.378, 392.519 644.500 C 392.504 656.574, 392.865 660.573, 394.373 665 C 401.389 685.601, 418.004 702.933, 437.324 709.804 C 446.736 713.152, 466.785 714.059, 477.243 711.610 C 496.307 707.148, 513.693 692.662, 522.982 673.500 C 528.110 662.920, 529.353 655.899, 528.770 640.791 C 528.388 630.899, 527.804 627.184, 525.775 621.758 C 521.935 611.489, 517.246 604.300, 508.993 596.026 C 500.621 587.634, 491.739 581.986, 482 578.862 C 473.516 576.141, 453.355 575.384, 444.289 577.446 M 720 577.047 C 716.975 577.564, 710.225 580.080, 705 582.639 C 696.971 586.570, 694.092 588.700, 686.404 596.395 C 678.911 603.895, 676.506 607.110, 672.764 614.631 C 667.165 625.884, 665.566 634.320, 666.261 648.932 C 667.137 667.358, 672.750 679.725, 686.500 693.533 C 700.325 707.415, 714.044 712.970, 734.500 712.970 C 755.207 712.970, 768.606 707.468, 783.037 693.037 C 797.379 678.695, 802.957 665.206, 802.985 644.799 C 803.004 631.017, 801.829 625.580, 796.377 614.215 C 788.770 598.363, 772.551 584.163, 756 578.867 C 748.519 576.473, 729.105 575.492, 720 577.047 M 106.447 742.403 C 92.134 746.886, 75.459 761.322, 68.794 775 C 64.106 784.620, 63 791.052, 63 808.684 L 63 823 186.500 823 L 310 823 309.980 810.750 C 309.957 796.448, 308.787 787.191, 306.002 779.267 C 300.456 763.486, 285.383 749.194, 268.058 743.287 L 261.500 741.052 186 741.093 C 127.875 741.124, 109.567 741.426, 106.447 742.403 M 381.500 742.404 C 370.081 746.031, 356.622 755.068, 350.489 763.226 C 340.085 777.067, 337 787.355, 337 808.210 L 337 823 460.651 823 L 584.301 823 583.681 807.750 C 582.623 781.731, 578.870 770.615, 567.258 759.117 C 560.252 752.181, 550.967 746.601, 540.347 742.947 C 534.928 741.083, 531.507 741.003, 460.093 741.067 C 402.700 741.118, 384.578 741.427, 381.500 742.404 M 652.388 743.376 C 642.759 746.956, 637.073 750.729, 628.989 758.904 C 620.254 767.739, 614.623 777.566, 612.467 787.743 C 611.614 791.766, 611.028 800.266, 611.017 808.750 L 611 823 734.657 823 L 858.313 823 857.687 807.250 C 856.653 781.260, 852.291 769.069, 839.950 757.680 C 836.063 754.093, 830.159 749.970, 825.877 747.852 C 811.109 740.550, 817.129 740.994, 733.715 741.052 L 658.500 741.104 652.388 743.376" stroke="none" fill="#0c6b9b" fill-rule="evenodd"/></svg>