<svg xmlns="http://www.w3.org/2000/svg" width="360" height="195" viewBox="0 0 360 195" version="1.1"><path d="M 131 0.722 C 127.178 2.158, 124.013 5.400, 122.458 9.470 C 120.057 15.757, 121.146 20.498, 126.068 25.179 L 129.955 28.877 118.846 37.688 C 112.736 42.535, 107.233 46.319, 106.618 46.099 C 106.003 45.878, 103.614 45.046, 101.310 44.250 C 97.240 42.844, 97.104 42.653, 96.594 37.651 C 95.196 23.953, 94.947 15.967, 95.866 14.250 C 97.135 11.880, 95.813 9.697, 93.392 10.163 C 91.036 10.617, 90.295 14.026, 92.307 15.152 C 93.393 15.759, 93.999 18.473, 94.451 24.749 C 94.797 29.562, 95.321 35.576, 95.615 38.112 L 96.150 42.725 91.746 43.834 C 89.324 44.443, 86.233 45.816, 84.876 46.883 L 82.409 48.824 68.290 35.708 C 55.034 23.394, 54.258 22.470, 55.586 20.574 C 57.643 17.637, 57.323 14.652, 54.686 12.174 C 50.945 8.660, 45.771 9.842, 43.952 14.626 C 42.640 18.077, 45.267 22.934, 48.473 22.985 C 49.007 22.993, 48.445 22.299, 47.223 21.443 C 42.534 18.160, 45.944 10.016, 51.431 11.393 C 56.280 12.610, 57.410 20.100, 52.958 21.513 C 51.104 22.102, 51.261 22.418, 54.710 25.039 C 56.795 26.623, 63.627 32.805, 69.893 38.777 L 81.285 49.635 79.535 52.307 C 78.572 53.776, 77.495 57.346, 77.142 60.239 L 76.500 65.500 65.232 65.783 C 51.302 66.133, 50.839 65.859, 43.927 53.172 L 38.846 43.843 40.471 39.780 C 42.540 34.611, 41.721 30.785, 37.850 27.527 C 30.856 21.642, 21 26.646, 21 36.082 C 21 38.384, 21.912 40.126, 24.297 42.382 L 27.593 45.500 20.603 69.164 C 13.939 91.719, 13.487 92.853, 10.946 93.361 C 4.207 94.709, -0.969 103.022, 0.397 110.302 C 2.164 119.722, 13.567 125.036, 21.500 120.137 L 24.500 118.284 31.225 121.642 C 34.924 123.489, 38.299 124.978, 38.725 124.951 C 39.151 124.924, 36.462 123.343, 32.750 121.437 C 29.037 119.531, 26.014 117.641, 26.032 117.236 C 26.049 116.831, 26.724 115.626, 27.532 114.559 C 29.732 111.649, 29.394 103.473, 26.888 99.014 L 24.776 95.257 35.097 83.128 C 40.773 76.458, 45.959 71, 46.621 71 C 48.035 71, 48.710 75.007, 49.484 88 C 49.795 93.225, 50.303 100.479, 50.613 104.119 C 51.167 110.620, 51.130 110.751, 48.557 111.396 C 44.875 112.320, 41.898 117.546, 42.231 122.500 C 42.448 125.722, 43.132 126.945, 45.750 128.786 C 47.537 130.043, 49 131.393, 49 131.786 C 49.001 132.179, 45.354 139.966, 40.896 149.091 C 33.404 164.431, 32.611 165.648, 30.398 165.225 C 26.612 164.502, 22.997 167.463, 23.015 171.273 C 23.033 175.058, 23.719 176.290, 26.678 177.847 C 29.035 179.088, 31.502 178.553, 34.233 176.208 C 35.782 174.878, 36.740 175.002, 43.233 177.375 C 50.402 179.995, 50.503 180.081, 50.694 183.765 C 50.964 188.978, 55.493 193, 61.093 193 C 68.706 193, 73.552 184.637, 69.896 177.806 C 68.912 175.968, 69.863 174.667, 78.646 165.832 C 86.439 157.993, 88.918 156.051, 90.500 156.545 C 91.600 156.888, 94.356 157.644, 96.624 158.224 L 100.749 159.279 101.284 165.890 C 101.741 171.532, 101.540 172.762, 99.910 174.289 C 97.691 176.368, 97.665 176.506, 99.035 179.066 C 99.605 180.130, 101.090 181, 102.335 181 C 106.933 181, 108.629 176.254, 104.952 173.679 C 103.332 172.544, 102.799 170.809, 102.400 165.372 L 101.895 158.500 105.484 156.272 L 109.074 154.043 128.037 166.681 C 145.239 178.144, 147 179.582, 147 182.159 C 147 185.624, 150.153 189, 153.389 189 C 156.839 189, 160.250 185.863, 160.250 182.690 C 160.250 181.210, 160.611 180, 161.053 180 C 162.117 180, 176.637 178.116, 180.705 177.451 C 183.501 176.993, 184.110 177.312, 185.472 179.946 C 187.535 183.936, 192.289 186.356, 196.509 185.564 C 200.816 184.756, 205 180.505, 205 176.937 C 205 175.120, 205.611 173.987, 206.750 173.689 C 208.035 173.354, 208.101 173.190, 207 173.074 C 206.175 172.987, 204.504 171.353, 203.287 169.444 L 201.074 165.973 210.307 152.736 C 222.838 134.773, 223.038 134.759, 229.309 151.359 C 233.975 163.711, 234 163.838, 232.270 166.853 C 230.693 169.599, 229.899 169.957, 224.013 170.577 C 220.431 170.954, 215.475 171.600, 213 172.013 C 205.819 173.212, 212.760 173.124, 221.850 171.901 C 229.839 170.826, 230.062 170.853, 231.976 173.151 C 234.505 176.186, 234.479 176.711, 231.477 183.268 C 229.960 186.583, 228.167 188.985, 226.977 189.296 C 224.634 189.909, 224.396 192.253, 226.500 194 C 228.509 195.667, 231.344 193.424, 230.639 190.726 C 230.363 189.674, 231.291 186.155, 232.700 182.906 C 234.951 177.716, 235.601 177, 238.058 177 C 240.876 177, 245 173.119, 245 170.467 C 245 169.638, 247.498 168.927, 252.250 168.401 C 256.238 167.960, 258.575 167.445, 257.443 167.255 C 256.312 167.066, 252.825 167.313, 249.693 167.804 C 246.562 168.295, 244 168.347, 244 167.920 C 244 166.155, 240.663 164, 237.929 164 C 236.318 164, 235 163.874, 235 163.720 C 235 163.566, 232.807 157.763, 230.126 150.825 C 227.445 143.888, 225.537 137.750, 225.885 137.186 C 226.260 136.580, 235.316 140.968, 248.010 147.906 C 266.814 158.183, 269.539 159.978, 269.811 162.269 C 270.088 164.602, 269.708 164.954, 266.311 165.510 C 259.892 166.560, 259.245 166.957, 264.656 166.527 C 269.459 166.145, 269.855 166.286, 270.433 168.589 C 271.211 171.687, 276.492 174.991, 280.673 174.996 C 284.650 175.001, 289.626 170.978, 290.486 167.064 C 290.968 164.868, 294.018 161.962, 303.296 154.855 C 318.882 142.918, 320.434 142.697, 324.913 151.778 C 327.808 157.649, 327.908 158.210, 326.459 160.422 C 323.685 164.656, 327.169 171, 332.268 171 C 334.744 171, 339 166.575, 339 164 C 339 160.840, 334.387 156.686, 331.644 157.374 C 329.686 157.866, 328.902 157.039, 325.694 151.101 C 323.662 147.339, 322 143.575, 322 142.737 C 322 139.518, 318.656 139.819, 315.541 143.318 C 313.868 145.197, 307.658 150.411, 301.740 154.905 C 291.262 162.860, 290.953 163.015, 289.992 160.788 C 289.449 159.529, 288.471 157.755, 287.818 156.845 C 286.821 155.456, 287.894 153.450, 294.504 144.345 C 298.834 138.380, 303.699 131.631, 305.314 129.346 C 308.060 125.460, 308.438 125.257, 311.156 126.204 C 314.640 127.419, 319.317 125.814, 321.540 122.640 C 323.314 120.107, 323.458 113.858, 321.781 112.181 C 320.821 111.221, 324.181 107.329, 337.531 93.936 C 346.864 84.572, 355.619 76.365, 356.988 75.698 C 360.447 74.011, 360.761 71.032, 357.740 68.546 C 356.373 67.421, 352.718 61.064, 349.619 54.421 C 344.007 42.394, 343.990 42.327, 345.618 39.064 C 349.035 32.215, 343.861 24.545, 335.825 24.545 C 328.185 24.545, 323.212 33.422, 326.945 40.398 C 328.219 42.778, 327.859 43.444, 319.464 54.199 C 314.613 60.415, 310.564 65.623, 310.465 65.774 C 310.367 65.924, 309.636 65.798, 308.841 65.493 C 308.047 65.188, 305.991 61.690, 304.274 57.719 L 301.151 50.500 303.453 48 C 306.919 44.236, 308 41.575, 307.996 36.816 C 307.989 28.669, 301.845 22.677, 293.500 22.677 C 284.716 22.677, 279.566 28.042, 279.416 37.351 L 279.321 43.202 267.483 50.573 C 250.965 60.858, 250.900 60.843, 245.273 45.503 C 242.770 38.677, 241.208 32.921, 241.559 31.814 C 242.448 29.012, 240.274 26.783, 237.895 28.056 C 235.430 29.375, 235.486 31.409, 238.035 33.128 C 240.658 34.897, 248.122 55.048, 248.274 60.772 C 248.382 64.827, 247.754 65.810, 235.965 80.042 C 228.149 89.478, 223.042 94.846, 222.190 94.519 C 221.446 94.234, 220.243 94, 219.517 94 C 218.587 94, 217.830 90.894, 216.951 83.481 C 216.266 77.696, 215.488 73.178, 215.224 73.443 C 214.960 73.707, 215.295 78.302, 215.968 83.654 C 217.698 97.398, 217.362 97.544, 202.221 89.629 C 195.771 86.258, 189.731 83.045, 188.799 82.489 C 187.252 81.567, 187.540 80.113, 192.072 65.962 L 197.041 50.445 201.619 49.383 L 206.197 48.321 209.605 55.800 C 212.024 61.108, 212.716 63.637, 211.989 64.513 C 210.877 65.853, 211.661 69, 213.107 69 C 213.598 69, 214.003 69.787, 214.006 70.750 C 214.010 71.924, 214.504 71.558, 215.506 69.636 C 217.401 66.002, 217.396 64.366, 215.487 63.633 C 214.654 63.314, 212.433 59.672, 210.550 55.540 L 207.126 48.028 209.969 45.185 C 217.229 37.925, 214.790 25.317, 205.364 21.379 C 200.851 19.493, 198.371 19.642, 193.282 22.105 C 187.647 24.833, 184.563 30.433, 185.265 36.663 L 185.751 40.974 172.403 49.581 L 159.055 58.188 156.392 56.094 C 154.643 54.718, 152.279 54, 149.500 54 L 145.269 54 141.134 42.151 C 138.861 35.634, 137 30.009, 137 29.651 C 137 29.293, 137.787 28.998, 138.750 28.996 C 144.954 28.983, 151.724 19.374, 150.421 12.431 C 148.817 3.879, 138.750 -2.190, 131 0.722 M 129.299 3.960 C 120.365 9.407, 121.229 22.002, 130.828 26.248 C 134.627 27.929, 135.869 28.056, 139.077 27.095 C 143.220 25.854, 147.632 21.313, 148.655 17.237 C 149.017 15.797, 148.681 12.822, 147.905 10.597 C 145.237 2.941, 136.235 -0.270, 129.299 3.960 M 134.096 5.928 C 132.026 7.489, 131.777 8.330, 132.221 12.265 C 132.669 16.244, 132.459 16.926, 130.505 17.816 C 129.280 18.374, 128.032 19.769, 127.732 20.915 C 127.212 22.906, 127.566 23, 135.594 23 C 143.368 23, 144 22.848, 144 20.975 C 144 19.768, 143.047 18.588, 141.639 18.053 C 139.507 17.242, 139.324 16.688, 139.743 12.326 C 140.111 8.494, 139.822 7.149, 138.345 5.812 C 136.597 4.230, 136.337 4.237, 134.096 5.928 M 48.685 13.648 C 48.328 14.005, 48.302 15.355, 48.627 16.648 C 48.980 18.058, 48.773 19, 48.108 19 C 47.499 19, 47 19.450, 47 20 C 47 20.550, 48.350 21, 50 21 C 52.860 21, 53.984 19.726, 52.134 18.583 C 51.658 18.289, 51.485 16.912, 51.751 15.524 C 52.215 13.096, 50.368 11.966, 48.685 13.648 M 193.299 23.960 C 184.441 29.360, 185.280 42.712, 194.724 46.658 C 201.957 49.680, 209.794 45.757, 212.136 37.942 C 213.048 34.895, 212.903 33.570, 211.248 29.828 C 208.041 22.578, 199.920 19.922, 193.299 23.960 M 288.415 25.421 C 283.500 27.562, 281 31.515, 281 37.150 C 281 41.311, 281.504 42.579, 284.423 45.765 C 287.583 49.213, 288.270 49.500, 293.357 49.500 C 298.103 49.500, 299.298 49.088, 301.961 46.538 C 309.043 39.752, 307.199 29.136, 298.282 25.362 C 294.320 23.685, 292.377 23.697, 288.415 25.421 M 196.372 27.555 C 195.043 29.583, 194.905 30.782, 195.699 33.372 C 196.623 36.381, 196.479 36.763, 193.850 38.271 C 187.826 41.729, 190.941 43.963, 201.820 43.986 C 207.797 43.999, 208.122 43.879, 207.820 41.759 C 207.643 40.519, 206.315 38.953, 204.846 38.251 C 202.374 37.070, 202.265 36.748, 203.247 33.546 C 204.103 30.757, 203.987 29.628, 202.628 27.555 C 201.707 26.150, 200.300 25, 199.500 25 C 198.700 25, 197.293 26.150, 196.372 27.555 M 26.888 27.500 C 21.464 30.448, 20.857 38.169, 25.747 42.016 C 28.395 44.099, 34.444 44.709, 35.500 43 C 35.881 42.384, 34.177 42, 31.059 42 C 26.762 42, 26 41.715, 26 40.107 C 26 39.066, 26.619 37.976, 27.376 37.686 C 28.252 37.350, 28.573 36.216, 28.259 34.573 C 27.683 31.561, 29.450 29, 32.103 29 C 34.231 29, 35.536 32.736, 34.523 35.928 C 34.161 37.068, 34.293 38, 34.816 38 C 35.339 38, 36.052 39.013, 36.400 40.250 C 37.020 42.453, 37.064 42.460, 38.516 40.559 C 39.332 39.491, 40 36.944, 40 34.898 C 40 31.971, 39.344 30.625, 36.923 28.589 C 33.484 25.695, 30.754 25.399, 26.888 27.500 M 331.364 27.170 C 327.609 28.988, 325.891 35.059, 328.010 39.019 C 328.986 40.841, 329.099 40.830, 331.260 38.704 C 332.837 37.153, 333.400 35.595, 333.163 33.444 C 332.744 29.641, 335.295 27.049, 337.834 28.699 C 339.691 29.906, 339.773 34.904, 337.954 36.028 C 337.257 36.459, 337.621 36.929, 338.915 37.268 C 340.062 37.567, 341 38.530, 341 39.406 C 341 40.656, 339.901 41, 335.917 41 C 329.618 41, 329.534 43.344, 335.816 43.807 C 341.415 44.220, 345 40.853, 345 35.182 C 345 28.024, 338.042 23.936, 331.364 27.170 M 290.536 28.961 C 289.139 30.504, 288.902 31.863, 289.424 35.341 C 290.045 39.482, 289.926 39.802, 287.543 40.400 C 285.674 40.869, 285 41.695, 285 43.519 C 285 45.966, 285.117 46, 293.500 46 C 299.642 46, 301.996 45.653, 301.985 44.750 C 301.962 42.917, 300.787 41.450, 298.282 40.131 C 296.407 39.144, 296.213 38.569, 297.032 36.417 C 298.403 32.810, 298.253 31.598, 296.133 29.153 C 293.826 26.493, 292.801 26.458, 290.536 28.961 M 121 37.616 C 115.225 42.327, 110.111 46.552, 109.635 47.006 C 109.157 47.462, 109.936 49.361, 111.376 51.249 C 112.810 53.129, 114.263 56.067, 114.606 57.779 C 115.119 60.343, 115.779 60.960, 118.364 61.285 L 121.500 61.680 118.250 61.840 C 115.399 61.980, 115 62.342, 115 64.789 C 115 66.322, 114.155 69.234, 113.123 71.259 L 111.246 74.940 121.490 81.470 C 127.123 85.061, 132.735 88, 133.960 88 C 135.310 88, 136.384 88.751, 136.686 89.907 C 136.960 90.956, 142.333 95.243, 148.625 99.433 L 160.065 107.053 163.532 104.408 C 165.440 102.953, 167 101.595, 167 101.391 C 167 101.186, 163.991 94.982, 160.314 87.603 C 153.677 74.286, 153.604 74.190, 150.564 74.675 C 146.501 75.322, 140.876 71.549, 139.678 67.374 C 138.810 64.345, 138.622 64.263, 130.146 63.245 L 121.500 62.206 130.085 62.708 L 138.671 63.209 139.967 60.081 C 140.679 58.360, 141.991 56.541, 142.881 56.038 C 144.324 55.223, 144.075 53.893, 140.596 43.812 C 135.783 29.863, 135.349 28.994, 133.215 29.025 C 132.272 29.039, 126.775 32.905, 121 37.616 M 172.496 50.609 L 159.492 59.084 159.845 63.518 L 160.198 67.952 173.108 74.517 C 185.918 81.031, 186.025 81.064, 186.888 78.791 C 188.765 73.851, 196.127 49.800, 195.823 49.603 C 195.645 49.489, 194.150 48.554, 192.500 47.527 C 190.850 46.500, 188.912 44.836, 188.193 43.830 C 187.475 42.823, 186.575 42.030, 186.193 42.067 C 185.812 42.104, 179.648 45.948, 172.496 50.609 M 320.338 54.570 C 315.495 60.809, 311.180 67.171, 310.748 68.707 C 310.273 70.397, 310.774 77.623, 312.016 87 C 314.831 108.246, 314.687 107.705, 317.735 108.470 C 320.097 109.063, 322.017 107.464, 337.437 92.063 C 346.833 82.678, 355.318 75, 356.292 75 C 357.266 75, 358.324 74.319, 358.643 73.487 C 359.287 71.810, 357.386 68.991, 355.628 69.015 C 355.007 69.024, 355.175 69.503, 356 70.081 C 357.155 70.889, 356.951 70.975, 355.112 70.454 C 352.960 69.845, 352.774 70.036, 353.224 72.389 C 353.498 73.825, 353.335 75, 352.861 75 C 351.624 75, 351.798 70.602, 353.086 69.314 C 353.868 68.532, 352.708 65.042, 348.947 56.864 C 346.072 50.614, 343.435 45.174, 343.085 44.775 C 342.735 44.376, 340.826 44.548, 338.842 45.156 C 335.951 46.044, 334.629 45.962, 332.189 44.744 L 329.142 43.224 320.338 54.570 M 34.065 45.141 C 32.726 45.653, 31.046 45.848, 30.333 45.574 C 29.449 45.235, 28.399 47.220, 27.046 51.788 C 25.952 55.480, 23.006 65.475, 20.500 74 C 17.993 82.525, 15.717 90.234, 15.441 91.132 C 15.083 92.300, 15.731 92.920, 17.720 93.311 C 19.249 93.612, 21.207 94.003, 22.072 94.179 C 24.151 94.604, 45 70.335, 45 67.490 C 45 66.341, 45.508 64.892, 46.129 64.271 C 46.968 63.432, 46.041 60.874, 42.524 54.321 C 39.921 49.469, 37.500 45.210, 37.145 44.854 C 36.790 44.499, 35.404 44.628, 34.065 45.141 M 267.425 51.586 C 255.889 58.697, 255.370 59.160, 255.784 61.981 C 256.116 64.246, 258.555 66.934, 266.254 73.522 C 271.774 78.245, 276.628 81.747, 277.041 81.305 C 277.747 80.548, 290 52.277, 290 51.405 C 290 51.182, 289.357 51, 288.571 51 C 287.785 51, 285.472 49.425, 283.431 47.500 C 281.390 45.575, 279.671 44.032, 279.610 44.071 C 279.550 44.111, 274.066 47.492, 267.425 51.586 M 88.379 47.382 C 81.290 50.592, 77.333 60.420, 79.944 68.331 C 82.459 75.950, 92.037 81.144, 99.744 79.069 C 113.960 75.241, 117.592 57.254, 105.838 48.885 C 101.878 46.065, 92.979 45.299, 88.379 47.382 M 93.934 50.346 C 91.507 51.556, 89.460 57.548, 91.123 58.576 C 91.605 58.874, 92 60.224, 92 61.575 C 92 63.387, 91.104 64.460, 88.589 65.659 C 85.466 67.148, 83.340 71.123, 84.588 73.142 C 85.309 74.308, 98.372 75.091, 103 74.246 C 107.023 73.511, 107.467 73.163, 107.186 70.962 C 107.013 69.608, 106.173 68.050, 105.318 67.500 C 99.892 64.010, 99.660 63.583, 101.066 59.695 C 103.480 53.017, 99.374 47.634, 93.934 50.346 M 294.180 51.882 C 290.981 52.478, 290.627 53.043, 284.430 67.454 C 280.894 75.679, 278 82.688, 278 83.030 C 278 83.371, 284.584 89.242, 292.632 96.075 C 303.706 105.478, 307.870 108.450, 309.754 108.295 C 311.123 108.182, 312.501 107.833, 312.816 107.518 C 313.842 106.492, 308.785 72.569, 307.360 70.918 C 306.609 70.048, 306.086 68.237, 306.197 66.893 C 306.461 63.698, 300.486 50.961, 298.803 51.132 C 298.086 51.204, 296.006 51.542, 294.180 51.882 M 144.856 56.516 C 141.114 58.549, 139.655 63.239, 141.438 67.505 C 143.076 71.427, 145.614 73.012, 150.184 72.968 C 158.284 72.891, 161.875 63.721, 156.077 57.923 C 152.816 54.662, 149.122 54.199, 144.856 56.516 M 148.043 58.448 C 147.343 59.292, 146.969 61.336, 147.212 62.991 C 147.497 64.933, 147.221 66, 146.434 66 C 145.410 66, 144 68.076, 144 69.582 C 144 69.812, 146.475 70, 149.500 70 C 153.638 70, 155 69.641, 155 68.550 C 155 67.752, 154.438 66.740, 153.750 66.300 C 153.063 65.860, 152.500 63.706, 152.500 61.514 C 152.500 57.146, 150.351 55.667, 148.043 58.448 M 249.332 60.578 C 248.999 61.445, 249.463 62.892, 250.363 63.792 C 251.879 65.307, 252.121 65.307, 253.637 63.792 C 255.681 61.747, 254.743 59, 252 59 C 250.865 59, 249.665 59.710, 249.332 60.578 M 250.800 63.200 C 251.733 64.133, 252.267 64.133, 253.200 63.200 C 254.133 62.267, 253.867 62, 252 62 C 250.133 62, 249.867 62.267, 250.800 63.200 M 47.011 65.487 C 45.349 67.489, 46.456 70, 49 70 C 50.135 70, 51.324 69.319, 51.643 68.487 C 52.218 66.990, 50.457 64, 49 64 C 48.585 64, 47.689 64.669, 47.011 65.487 M 251.691 65.945 C 249.587 66.361, 245.777 70.234, 236.514 81.376 C 226.235 93.738, 224.277 96.610, 224.929 98.376 C 225.360 99.544, 225.543 100.977, 225.336 101.561 C 225.050 102.367, 236.347 108.228, 245.079 111.803 C 245.487 111.970, 245.581 109.471, 245.289 106.251 C 244.868 101.605, 245.176 99.579, 246.782 96.447 C 251.702 86.850, 262.240 82.566, 271.457 86.417 C 274.428 87.659, 274.921 87.649, 275.425 86.336 C 276.406 83.777, 276.226 83.546, 267.297 75.927 C 254.877 65.329, 254.861 65.319, 251.691 65.945 M 47 68 C 47 68.550, 47.675 69, 48.500 69 C 49.325 69, 50 68.550, 50 68 C 50 67.450, 49.325 67, 48.500 67 C 47.675 67, 47 67.450, 47 68 M 57 67.741 C 55.075 67.973, 52.643 69.082, 51.595 70.206 C 49.764 72.170, 49.739 72.980, 50.974 90.997 L 52.258 109.744 55.828 110.839 C 57.792 111.442, 59.459 111.837, 59.534 111.718 C 59.608 111.598, 65.108 103.948, 71.757 94.717 L 83.844 77.935 81.532 75.440 C 80.260 74.068, 78.666 71.608, 77.989 69.973 L 76.757 67 68.629 67.160 C 64.158 67.248, 58.925 67.510, 57 67.741 M 157.076 71.419 L 154.804 73.838 161.388 87.531 C 166.963 99.123, 168.244 101.108, 169.737 100.465 C 170.706 100.047, 173.506 99.593, 175.958 99.456 L 180.416 99.206 183.103 90.853 C 184.581 86.259, 185.838 83.045, 185.895 83.712 C 185.953 84.378, 184.941 88.258, 183.647 92.334 L 181.294 99.745 185.123 101.434 C 187.229 102.363, 189.829 104.238, 190.900 105.600 C 192.424 107.537, 193.463 107.954, 195.674 107.515 C 198.327 106.988, 198.356 107.017, 196.145 107.983 C 194.397 108.748, 193.992 109.462, 194.570 110.756 C 194.999 111.715, 195.458 115.161, 195.591 118.414 L 195.832 124.328 203.666 127.241 C 207.975 128.843, 213.097 130.742, 215.048 131.461 C 217.901 132.513, 218.932 132.523, 220.313 131.513 C 221.934 130.328, 221.935 129.632, 220.327 119.025 C 219.084 110.833, 218.201 107.644, 217.062 107.244 C 216.203 106.943, 214.721 106.028, 213.770 105.211 C 212.235 103.894, 211.346 103.920, 205.930 105.440 C 202.570 106.382, 199.616 106.950, 199.366 106.700 C 199.117 106.450, 201.857 105.449, 205.456 104.474 C 210.382 103.141, 212 102.266, 212 100.933 C 212 99.960, 212.235 98.552, 212.522 97.804 C 212.886 96.855, 205.104 92.310, 186.693 82.722 C 172.200 75.175, 160.119 69, 159.846 69 C 159.572 69, 158.326 70.089, 157.076 71.419 M 354 73 C 354 73.550, 354.675 74, 355.500 74 C 356.325 74, 357 73.550, 357 73 C 357 72.450, 356.325 72, 355.500 72 C 354.675 72, 354 72.450, 354 73 M 107.250 77.944 C 106.013 78.976, 105 80.091, 105 80.421 C 105 80.752, 107.964 85.716, 111.587 91.453 C 116.153 98.684, 118.829 101.978, 120.312 102.192 C 121.488 102.361, 122.983 103.573, 123.634 104.885 C 124.589 106.807, 127.874 108.310, 140.576 112.635 C 149.242 115.586, 156.418 117.888, 156.522 117.750 C 156.625 117.613, 157.412 115.395, 158.270 112.822 L 159.830 108.143 148.157 100.642 C 141.738 96.517, 135.615 93.222, 134.551 93.321 C 133.412 93.426, 132.126 92.540, 131.424 91.165 C 130.332 89.027, 112.061 75.956, 110.272 76.033 C 109.848 76.052, 108.487 76.911, 107.250 77.944 M 72.207 96.144 C 60.231 112.806, 59.960 113.298, 61.703 115.225 C 62.903 116.550, 63.439 118.591, 63.330 121.413 L 63.167 125.624 74.334 131.161 L 85.500 136.699 87.817 133.861 C 89.091 132.300, 91.566 130.647, 93.317 130.188 L 96.500 129.353 96.269 121.426 C 96.142 117.067, 95.761 106.494, 95.422 97.932 L 94.806 82.363 90.653 81.136 C 88.369 80.461, 86.050 79.713, 85.500 79.475 C 84.950 79.236, 78.968 86.738, 72.207 96.144 M 98.689 81.722 L 95.877 82.145 96.476 100.322 C 97.343 126.673, 97.619 128.688, 100.467 129.402 C 101.758 129.726, 103.478 130.246, 104.290 130.558 C 106.473 131.396, 118.483 110.287, 116.905 108.385 C 116.276 107.628, 116.064 105.880, 116.426 104.439 C 116.949 102.357, 115.776 99.813, 110.429 91.426 C 106.774 85.692, 103.269 81.067, 102.641 81.150 C 102.014 81.232, 100.235 81.490, 98.689 81.722 M 276.385 86.438 C 276.003 87.433, 276.554 88.985, 277.757 90.301 C 281.612 94.520, 283.403 99.300, 283.359 105.254 L 283.317 111.008 286.909 111.944 C 297.307 114.652, 302.880 116, 303.675 116 C 304.163 116, 305.074 114.642, 305.701 112.981 C 306.840 109.963, 306.840 109.963, 293.663 98.731 C 275.722 83.440, 277.147 84.454, 276.385 86.438 M 257.500 88.826 C 250.369 92.198, 246.312 99.293, 247.448 106.402 C 248.949 115.785, 256.251 121.559, 265.634 120.780 C 274.603 120.037, 280.037 114.603, 280.780 105.634 C 281.138 101.322, 280.780 99.380, 279.063 96.326 C 274.638 88.452, 265.218 85.176, 257.500 88.826 M 262.751 93.689 C 261.048 94.134, 260.718 94.976, 259.591 101.750 C 259.117 104.597, 259.326 105.005, 261.275 105.040 C 263.361 105.078, 263.330 105.173, 260.775 106.559 C 258.105 108.008, 256 110.818, 256 112.934 C 256 113.605, 259.150 114, 264.500 114 C 272.276 114, 273 113.833, 273 112.039 C 273 110.086, 272.297 109.220, 268.500 106.498 C 266.722 105.223, 266.695 105.060, 268.250 105.032 C 270.849 104.985, 270.667 97.667, 268 95 C 265.951 92.951, 265.758 92.903, 262.751 93.689 M 11.500 94.723 C -1.638 98.075, -0.587 117.904, 12.825 119.703 C 20.347 120.712, 26.104 116.485, 27.448 108.966 C 28.909 100.787, 19.761 92.616, 11.500 94.723 M 214.655 96.829 C 211.272 100.567, 213.922 106, 219.129 106 C 222.482 106, 224 104.234, 224 100.335 C 224 95.282, 218.069 93.056, 214.655 96.829 M 12.532 97.965 C 10.817 99.860, 10.812 101.219, 12.503 106.623 C 13.046 108.359, 12.604 108.942, 10.083 109.821 C 8.388 110.412, 7 111.333, 7 111.866 C 7 112.400, 6.727 113.548, 6.393 114.418 C 5.868 115.785, 6.955 116, 14.393 116 C 22.146 116, 23 115.814, 23 114.122 C 23 113.090, 22.325 111.685, 21.500 111 C 20.675 110.315, 20 109.135, 20 108.378 C 20 107.620, 19.578 107, 19.063 107 C 18.547 107, 18.383 105.415, 18.697 103.477 C 19.115 100.903, 18.787 99.423, 17.480 97.977 C 15.253 95.517, 14.748 95.516, 12.532 97.965 M 217.882 98.167 C 217.816 98.900, 217.836 100.063, 217.925 100.750 C 218.015 101.438, 217.618 102, 217.044 102 C 216.470 102, 216 102.450, 216 103 C 216 103.550, 217.350 104, 219 104 C 221.917 104, 222.765 103.099, 221.263 101.596 C 220.857 101.191, 220.520 100.142, 220.513 99.266 C 220.497 97.320, 218.048 96.297, 217.882 98.167 M 167.922 104.274 C 160.390 109.349, 157.809 118.581, 161.656 126.688 C 166.352 136.585, 180.957 138.567, 188.698 130.358 C 199.162 119.263, 191.680 102.015, 176.398 102.004 C 172.742 102.001, 170.339 102.645, 167.922 104.274 M 118.229 104.171 C 116.743 105.657, 116.634 107, 118 107 C 118.550 107, 119 106.325, 119 105.500 C 119 104.675, 119.450 104, 120 104 C 120.550 104, 121 104.675, 121 105.500 C 121 106.325, 121.483 107, 122.073 107 C 123.703 107, 122.695 103.565, 120.968 103.232 C 120.138 103.072, 118.905 103.495, 118.229 104.171 M 222.133 106.038 L 219.766 108.010 221.395 119.184 C 222.291 125.329, 223.249 130.582, 223.524 130.857 C 223.799 131.132, 226.381 130.635, 229.262 129.753 C 232.143 128.870, 239.111 126.746, 244.748 125.032 L 254.995 121.916 250.748 117.863 C 248.081 115.319, 242.509 111.986, 235.778 108.906 C 229.880 106.208, 224.930 104.015, 224.778 104.033 C 224.625 104.052, 223.435 104.954, 222.133 106.038 M 172.223 106.557 C 169.406 108.530, 169.361 112.230, 172.099 116.660 C 173.787 119.391, 173.959 120.345, 172.977 121.528 C 172.305 122.338, 171.190 123, 170.500 123 C 168.798 123, 167.301 124.954, 166.472 128.256 L 165.783 131 176.392 131 C 182.226 131, 187 130.842, 187 130.649 C 187 128.551, 184.432 123.955, 183.007 123.502 C 179.003 122.231, 178.567 120.232, 181.402 116.141 C 183.604 112.965, 183.894 111.851, 183.080 109.711 C 181.353 105.168, 176.301 103.700, 172.223 106.557 M 122.981 109.081 C 122.166 109.507, 120.825 110.062, 120 110.314 C 119.175 110.567, 115.898 115.336, 112.719 120.912 L 106.938 131.052 109.460 134.359 C 110.848 136.179, 112.253 139.015, 112.582 140.662 L 113.181 143.657 124.591 144.579 L 136 145.500 138.030 142.750 C 139.585 140.643, 140.894 140, 143.626 140 C 146.521 140, 148.367 138.969, 153.433 134.521 L 159.674 129.042 158.139 124.042 L 156.605 119.042 140.533 113.674 C 130.737 110.402, 123.883 108.609, 122.981 109.081 M 308.455 111.455 C 303.334 116.575, 306.696 125, 313.860 125 C 318.115 125, 322 121.182, 322 117 C 322 112.889, 318.111 109, 314 109 C 312.052 109, 310.002 109.907, 308.455 111.455 M 313.086 112.397 C 312.365 113.265, 312.064 114.723, 312.415 115.638 C 312.817 116.686, 312.215 118.079, 310.790 119.401 L 308.527 121.500 313.371 121.809 C 316.035 121.979, 318.428 121.906, 318.687 121.646 C 318.947 121.386, 318.410 120.029, 317.494 118.631 C 316.577 117.232, 316.077 115.684, 316.382 115.191 C 316.687 114.698, 316.364 113.513, 315.665 112.557 C 314.514 110.982, 314.272 110.967, 313.086 112.397 M 46.455 114.455 C 44.013 116.896, 43.203 121.758, 44.621 125.455 C 45.432 127.567, 50.199 130, 53.527 130 C 57.001 130, 62 124.992, 62 121.511 C 62 118.461, 60.371 115.036, 58.087 113.282 C 55.269 111.118, 49.176 111.733, 46.455 114.455 M 277.948 117.085 C 275.047 120.198, 272.235 122.203, 270.198 122.610 C 268.439 122.962, 267 123.740, 267 124.339 C 267 124.937, 269.113 131.818, 271.696 139.629 L 276.392 153.830 280.946 154.239 C 283.451 154.464, 285.553 154.614, 285.617 154.574 C 285.681 154.533, 290.715 147.669, 296.804 139.320 C 305.678 127.152, 307.609 123.920, 306.535 123.029 C 305.799 122.418, 304.931 120.863, 304.608 119.573 C 304.100 117.550, 302.750 116.926, 294.760 115.020 C 289.667 113.805, 284.825 112.673, 284 112.505 C 283.175 112.336, 280.451 114.397, 277.948 117.085 M 50.383 116.445 C 50.048 117.317, 50.010 118.929, 50.297 120.028 C 50.641 121.343, 50.166 122.376, 48.910 123.048 C 47.859 123.610, 47 124.730, 47 125.535 C 47 126.659, 48.397 127, 53 127 C 59.210 127, 60.378 126.079, 57.088 123.774 C 55.760 122.844, 55.226 121.377, 55.338 118.968 C 55.473 116.072, 55.128 115.447, 53.246 115.180 C 51.886 114.987, 50.750 115.489, 50.383 116.445 M 255.885 122.448 C 255.605 122.729, 248.878 124.942, 240.938 127.366 C 228.588 131.136, 226.549 132.043, 226.842 133.637 C 227.029 134.661, 227.479 135.625, 227.842 135.778 C 228.204 135.930, 237.950 141.188, 249.500 147.461 L 270.500 158.866 272.845 156.565 L 275.190 154.265 270.345 139.242 C 265.662 124.721, 265.400 124.202, 262.500 123.695 C 260.850 123.406, 258.801 122.893, 257.948 122.554 C 257.094 122.215, 256.166 122.167, 255.885 122.448 M 193.606 127.779 C 191.952 130.957, 188.574 134.193, 184.888 136.128 L 182.276 137.500 186.635 151.149 L 190.995 164.798 195.574 165.162 L 200.154 165.527 208.888 153.013 C 219.825 137.345, 219.171 138.529, 218.459 135.692 C 218.068 134.136, 216.738 132.930, 214.678 132.265 C 212.930 131.701, 207.792 129.849, 203.261 128.149 L 195.021 125.058 193.606 127.779 M 59.851 128.604 C 58.409 130.046, 56.045 131.141, 54.087 131.274 C 50.843 131.495, 50.577 131.881, 42.384 148.239 C 37.773 157.445, 34 165.706, 34 166.596 C 34 168.548, 31.622 169.422, 60.717 156.779 L 84 146.662 84 143.413 C 84 141.626, 84.232 139.559, 84.516 138.820 C 84.866 137.907, 81.385 135.660, 73.664 131.817 L 62.296 126.158 59.851 128.604 M 154.153 135.600 C 149.300 139.991, 148.183 141.515, 149.050 142.561 C 149.661 143.297, 150.016 145.281, 149.839 146.969 C 149.523 149.986, 149.821 150.206, 167.348 159.888 L 185.179 169.739 187.610 167.485 L 190.041 165.232 185.771 151.633 L 181.500 138.033 177.218 138.017 C 172.081 137.997, 166.437 135.792, 162.933 132.435 L 160.366 129.977 154.153 135.600 M 92.108 132.716 C 87.258 135.106, 84.341 141.857, 85.905 147.077 C 87.146 151.220, 91.687 155.632, 95.763 156.655 C 97.203 157.017, 100.178 156.681, 102.403 155.905 C 110.059 153.237, 113.270 144.235, 109.040 137.299 C 105.410 131.345, 98.622 129.508, 92.108 132.716 M 220.667 132.667 C 220.300 133.033, 220.036 134.271, 220.079 135.417 C 220.122 136.563, 220.385 136.938, 220.662 136.250 C 221.242 134.814, 224 134.539, 224 135.917 C 224 136.421, 223.539 137.062, 222.975 137.342 C 222.411 137.621, 222.524 137.737, 223.225 137.598 C 223.926 137.459, 224.642 136.143, 224.816 134.673 C 225.062 132.603, 224.705 132, 223.233 132 C 222.188 132, 221.033 132.300, 220.667 132.667 M 94.557 135.223 C 92.507 138.149, 92.469 144, 94.500 144 C 95.325 144, 96 144.450, 96 145 C 96 145.550, 95.357 146, 94.571 146 C 92.531 146, 90 148.807, 90 151.071 C 90 152.825, 90.772 153, 98.500 153 C 107.611 153, 108.406 152.453, 105.443 148.223 C 104.587 147, 103.237 146, 102.443 146 C 101.649 146, 101 145.550, 101 145 C 101 144.450, 101.695 144, 102.545 144 C 103.761 144, 103.992 143.137, 103.625 139.949 C 103.369 137.721, 102.619 135.246, 101.958 134.449 C 100.169 132.294, 96.327 132.696, 94.557 135.223 M 139.200 142.200 C 137.407 143.993, 137.752 148.466, 139.829 150.345 C 141.822 152.149, 145.540 152.554, 146.459 151.066 C 146.776 150.553, 145.672 150.172, 144.004 150.219 C 140.418 150.321, 138.974 149.252, 141.003 147.998 C 141.798 147.507, 142.459 146.187, 142.474 145.066 C 142.488 143.944, 142.950 143.132, 143.500 143.263 C 144.050 143.393, 144.452 144.398, 144.394 145.495 C 144.285 147.559, 146.898 150.181, 148.239 149.352 C 149.574 148.527, 149.056 144.199, 147.429 142.571 C 145.569 140.712, 140.899 140.501, 139.200 142.200 M 111.830 148.916 L 110.160 152.974 128.666 165.546 C 146.642 177.758, 147.240 178.073, 149.551 176.559 C 152.753 174.461, 155.218 174.597, 158.329 177.044 C 160.877 179.048, 161.148 179.057, 172.152 177.523 C 178.325 176.662, 183.507 175.826, 183.667 175.667 C 183.826 175.507, 184.079 174.306, 184.228 172.998 C 184.471 170.877, 182.592 169.556, 166.930 160.828 C 150.223 151.519, 149.208 151.095, 146.251 152.211 C 142.527 153.617, 138.090 152.061, 137.310 149.076 C 136.782 147.059, 134.659 146.590, 121 145.472 L 113.500 144.858 111.830 148.916 M 59.275 158.334 C 37.913 167.685, 36.048 168.701, 36.025 171.004 C 36.003 173.192, 36.906 173.860, 43.168 176.288 L 50.336 179.067 53.466 176.033 C 56.870 172.733, 62.177 171.954, 66.282 174.151 C 68.248 175.203, 69.265 174.411, 78.076 164.969 L 87.718 154.636 85.760 151.318 C 84.683 149.493, 83.509 148.038, 83.151 148.084 C 82.793 148.130, 72.049 152.743, 59.275 158.334 M 273.923 157.923 C 266.832 165.014, 274.293 176.412, 283.505 172.562 C 289.891 169.894, 291.166 162, 285.923 157.589 C 281.756 154.082, 277.650 154.197, 273.923 157.923 M 329.762 159.073 C 323.643 162.638, 327.297 171.627, 334.001 169.500 C 338.712 168.005, 339.023 161.243, 334.477 159.171 C 331.464 157.799, 331.933 157.809, 329.762 159.073 M 278 162.323 C 278 164.479, 277.434 166.003, 276.500 166.362 C 271.833 168.153, 278.173 171.748, 283.598 170.386 C 286.455 169.669, 286.536 169.249, 284.296 166.775 C 283.359 165.739, 282.572 163.679, 282.546 162.196 C 282.512 160.179, 281.933 159.420, 280.250 159.180 C 278.288 158.902, 278 159.305, 278 162.323 M 330.469 161.050 C 329.551 162.536, 330.281 163.062, 331.886 162.071 C 332.745 161.539, 332.848 161.024, 332.176 160.609 C 331.605 160.256, 330.837 160.455, 330.469 161.050 M 331.250 164.713 C 328.858 165.166, 328.312 166.457, 330.057 167.535 C 331.635 168.511, 336.201 167.102, 335.759 165.776 C 335.298 164.394, 334.244 164.146, 331.250 164.713 M 233.517 166.982 C 232.040 168.613, 231.836 169.623, 232.568 171.677 C 233.875 175.344, 236.282 176.642, 239.588 175.462 C 242.938 174.265, 244.222 171.083, 242.641 167.895 C 241.029 164.642, 236.082 164.147, 233.517 166.982 M 25.655 167.829 C 23.719 169.968, 23.484 174.084, 25.200 175.800 C 27.154 177.754, 32.778 177.283, 33.965 175.066 C 35.501 172.195, 35.233 170.233, 33 168 C 30.509 165.509, 27.811 165.446, 25.655 167.829 M 190.500 167.208 C 185.322 170.178, 184.293 177.384, 188.455 181.545 C 190.217 183.307, 191.980 183.991, 194.705 183.968 C 198.850 183.933, 201.046 182.677, 202.837 179.316 C 206.950 171.593, 198.063 162.870, 190.500 167.208 M 27.374 168.469 C 27.071 169.258, 27.133 170.406, 27.512 171.019 C 27.890 171.632, 27.368 172.764, 26.350 173.535 C 24.657 174.818, 24.818 174.939, 28.250 174.968 C 30.313 174.986, 32 174.550, 32 174 C 32 173.450, 31.498 173, 30.883 173 C 30.238 173, 29.964 171.967, 30.235 170.550 C 30.753 167.840, 28.300 166.056, 27.374 168.469 M 236 167.787 C 236 168.220, 236.910 168.643, 238.022 168.727 C 239.134 168.810, 239.782 168.456, 239.463 167.939 C 238.760 166.803, 236 166.681, 236 167.787 M 193.011 170.487 C 192.332 171.305, 192.064 172.723, 192.415 173.638 C 192.807 174.659, 192.270 176.031, 191.027 177.190 C 188.238 179.788, 188.479 180.697, 192.102 181.228 C 198.570 182.178, 202.605 179.557, 198.346 177.173 C 197.313 176.595, 196.936 175.610, 197.342 174.551 C 198.032 172.754, 196.507 169, 195.087 169 C 194.624 169, 193.689 169.669, 193.011 170.487 M 235 172.652 C 235 173.483, 236.151 174, 238 174 C 239.938 174, 241 173.493, 241 172.567 C 241 171.622, 239.977 171.163, 238 171.219 C 236.193 171.270, 235 171.840, 235 172.652 M 54.636 176.636 C 50.890 180.382, 51.048 185.202, 55.046 189.200 C 57.669 191.823, 58.600 192.164, 61.737 191.655 C 63.741 191.330, 66.209 190.235, 67.222 189.222 C 68.235 188.209, 69.330 185.741, 69.655 183.737 C 70.164 180.600, 69.823 179.669, 67.200 177.046 C 63.202 173.048, 58.382 172.890, 54.636 176.636 M 100.362 175.500 C 99.496 177.757, 100.710 180.015, 102.719 179.884 C 104.246 179.785, 104.266 179.706, 102.857 179.331 C 101.793 179.048, 101.394 178.209, 101.724 176.947 C 102.323 174.657, 104 174.328, 104 176.500 C 104 177.325, 104.450 178, 105 178 C 106.356 178, 106.260 176.660, 104.800 175.200 C 103.153 173.553, 101.054 173.695, 100.362 175.500 M 58.557 178.223 C 56.680 180.902, 56.542 183.649, 58.250 184.338 C 59.039 184.656, 58.895 184.871, 57.857 184.921 C 56.490 184.987, 55 186.896, 55 188.582 C 55 188.812, 57.475 189, 60.500 189 C 66.401 189, 67.318 188.037, 63.777 185.557 C 62.555 184.701, 62.105 184, 62.777 184 C 64.653 184, 64.330 177.340, 62.418 176.607 C 60.230 175.767, 60.296 175.740, 58.557 178.223 M 150.223 177.557 C 145.966 180.538, 148.432 188, 153.674 188 C 158.604 188, 160.858 180.415, 156.777 177.557 C 155.555 176.701, 154.080 176, 153.500 176 C 152.920 176, 151.445 176.701, 150.223 177.557 M 152.155 180.272 C 152.331 181.619, 151.864 183.460, 151.115 184.361 C 149.898 185.828, 150.134 186, 153.378 186 C 155.370 186, 157 185.550, 157 185 C 157 184.450, 156.533 184, 155.962 184 C 155.391 184, 155.054 182.778, 155.212 181.286 C 155.421 179.316, 154.997 178.468, 153.667 178.196 C 152.225 177.901, 151.902 178.345, 152.155 180.272" stroke="none" fill="#16acb6" fill-rule="evenodd"/><path d="M 0.039 52.250 C 0.073 96.870, 0.274 104.050, 1.421 101.415 C 3.010 97.766, 7.413 94.067, 11.029 93.344 C 13.462 92.858, 14.017 91.455, 20.603 69.164 L 27.593 45.500 24.297 42.382 C 14.787 33.387, 27.827 19.094, 37.850 27.527 C 41.721 30.785, 42.540 34.611, 40.471 39.780 L 38.846 43.843 43.927 53.172 C 50.839 65.859, 51.302 66.133, 65.232 65.783 L 76.500 65.500 77.142 60.239 C 77.495 57.346, 78.572 53.776, 79.535 52.307 L 81.285 49.635 69.893 38.777 C 63.627 32.805, 56.795 26.623, 54.710 25.039 C 51.261 22.418, 51.104 22.102, 52.958 21.513 C 57.410 20.100, 56.280 12.610, 51.431 11.393 C 45.944 10.016, 42.534 18.160, 47.223 21.443 C 48.445 22.299, 49.007 22.993, 48.473 22.985 C 45.267 22.934, 42.640 18.077, 43.952 14.626 C 45.801 9.764, 51.326 8.589, 54.826 12.314 C 57.341 14.992, 57.591 17.711, 55.586 20.574 C 54.258 22.470, 55.034 23.394, 68.290 35.708 L 82.409 48.824 84.876 46.883 C 86.233 45.816, 89.324 44.443, 91.746 43.834 L 96.150 42.725 95.615 38.112 C 95.321 35.576, 94.797 29.562, 94.451 24.749 C 93.999 18.473, 93.393 15.759, 92.307 15.152 C 90.295 14.026, 91.036 10.617, 93.392 10.163 C 95.813 9.697, 97.135 11.880, 95.866 14.250 C 94.947 15.967, 95.196 23.953, 96.594 37.651 C 97.104 42.653, 97.240 42.844, 101.310 44.250 C 103.614 45.046, 106.003 45.878, 106.618 46.099 C 107.233 46.319, 112.736 42.535, 118.846 37.688 L 129.955 28.877 126.068 25.179 C 121.146 20.498, 120.057 15.757, 122.458 9.470 C 124.013 5.400, 127.178 2.158, 131 0.722 C 131.825 0.412, 102.688 0.122, 66.250 0.079 L 0 0 0.039 52.250 M 142.589 1.891 C 149.924 6.364, 152.328 13.210, 149.114 20.476 C 147.124 24.973, 142.240 28.989, 138.750 28.996 C 137.787 28.998, 137 29.293, 137 29.651 C 137 30.009, 138.861 35.634, 141.134 42.151 L 145.269 54 149.500 54 C 152.279 54, 154.643 54.718, 156.392 56.094 L 159.055 58.188 172.403 49.581 L 185.751 40.974 185.265 36.663 C 184.563 30.433, 187.647 24.833, 193.282 22.105 C 198.371 19.642, 200.851 19.493, 205.364 21.379 C 214.790 25.317, 217.229 37.925, 209.969 45.185 L 207.126 48.028 210.550 55.540 C 212.433 59.672, 214.654 63.314, 215.487 63.633 C 217.396 64.366, 217.401 66.002, 215.506 69.636 C 214.504 71.558, 214.010 71.924, 214.006 70.750 C 214.003 69.787, 213.598 69, 213.107 69 C 211.661 69, 210.877 65.853, 211.989 64.513 C 212.716 63.637, 212.024 61.108, 209.605 55.800 L 206.197 48.321 201.619 49.383 L 197.041 50.445 192.072 65.962 C 187.540 80.113, 187.252 81.567, 188.799 82.489 C 189.731 83.045, 195.771 86.258, 202.221 89.629 C 217.362 97.544, 217.698 97.398, 215.968 83.654 C 215.295 78.302, 214.960 73.707, 215.224 73.443 C 215.488 73.178, 216.266 77.696, 216.951 83.481 C 217.830 90.894, 218.587 94, 219.517 94 C 220.243 94, 221.446 94.234, 222.190 94.519 C 223.042 94.846, 228.149 89.478, 235.965 80.042 C 247.754 65.810, 248.382 64.827, 248.274 60.772 C 248.122 55.048, 240.658 34.897, 238.035 33.128 C 235.486 31.409, 235.430 29.375, 237.895 28.056 C 240.274 26.783, 242.448 29.012, 241.559 31.814 C 241.208 32.921, 242.770 38.677, 245.273 45.503 C 250.900 60.843, 250.965 60.858, 267.483 50.573 L 279.321 43.202 279.416 37.351 C 279.566 28.042, 284.716 22.677, 293.500 22.677 C 301.845 22.677, 307.989 28.669, 307.996 36.816 C 308 41.575, 306.919 44.236, 303.453 48 L 301.151 50.500 304.274 57.719 C 305.991 61.690, 308.047 65.188, 308.841 65.493 C 309.636 65.798, 310.367 65.924, 310.465 65.774 C 310.564 65.623, 314.613 60.415, 319.464 54.199 C 327.859 43.444, 328.219 42.778, 326.945 40.398 C 323.212 33.422, 328.185 24.545, 335.825 24.545 C 343.852 24.545, 349.035 32.215, 345.625 39.050 C 344.006 42.295, 344.028 42.378, 349.749 54.694 C 353.077 61.858, 356.448 67.702, 357.750 68.561 L 360 70.046 360 35.023 L 360 0 249.750 0.004 C 141.346 0.007, 139.552 0.039, 142.589 1.891 M 129.299 3.960 C 120.365 9.407, 121.229 22.002, 130.828 26.248 C 134.627 27.929, 135.869 28.056, 139.077 27.095 C 143.220 25.854, 147.632 21.313, 148.655 17.237 C 149.017 15.797, 148.681 12.822, 147.905 10.597 C 145.237 2.941, 136.235 -0.270, 129.299 3.960 M 134.096 5.928 C 132.026 7.489, 131.777 8.330, 132.221 12.265 C 132.669 16.244, 132.459 16.926, 130.505 17.816 C 129.280 18.374, 128.032 19.769, 127.732 20.915 C 127.212 22.906, 127.566 23, 135.594 23 C 143.368 23, 144 22.848, 144 20.975 C 144 19.768, 143.047 18.588, 141.639 18.053 C 139.507 17.242, 139.324 16.688, 139.743 12.326 C 140.111 8.494, 139.822 7.149, 138.345 5.812 C 136.597 4.230, 136.337 4.237, 134.096 5.928 M 48.685 13.648 C 48.328 14.005, 48.302 15.355, 48.627 16.648 C 48.980 18.058, 48.773 19, 48.108 19 C 47.499 19, 47 19.450, 47 20 C 47 20.550, 48.350 21, 50 21 C 52.860 21, 53.984 19.726, 52.134 18.583 C 51.658 18.289, 51.485 16.912, 51.751 15.524 C 52.215 13.096, 50.368 11.966, 48.685 13.648 M 193.299 23.960 C 184.441 29.360, 185.280 42.712, 194.724 46.658 C 201.957 49.680, 209.794 45.757, 212.136 37.942 C 213.048 34.895, 212.903 33.570, 211.248 29.828 C 208.041 22.578, 199.920 19.922, 193.299 23.960 M 288.415 25.421 C 283.500 27.562, 281 31.515, 281 37.150 C 281 41.311, 281.504 42.579, 284.423 45.765 C 287.583 49.213, 288.270 49.500, 293.357 49.500 C 298.103 49.500, 299.298 49.088, 301.961 46.538 C 309.043 39.752, 307.199 29.136, 298.282 25.362 C 294.320 23.685, 292.377 23.697, 288.415 25.421 M 196.372 27.555 C 195.043 29.583, 194.905 30.782, 195.699 33.372 C 196.623 36.381, 196.479 36.763, 193.850 38.271 C 187.826 41.729, 190.941 43.963, 201.820 43.986 C 207.797 43.999, 208.122 43.879, 207.820 41.759 C 207.643 40.519, 206.315 38.953, 204.846 38.251 C 202.374 37.070, 202.265 36.748, 203.247 33.546 C 204.103 30.757, 203.987 29.628, 202.628 27.555 C 201.707 26.150, 200.300 25, 199.500 25 C 198.700 25, 197.293 26.150, 196.372 27.555 M 26.888 27.500 C 21.464 30.448, 20.857 38.169, 25.747 42.016 C 28.395 44.099, 34.444 44.709, 35.500 43 C 35.881 42.384, 34.177 42, 31.059 42 C 26.762 42, 26 41.715, 26 40.107 C 26 39.066, 26.619 37.976, 27.376 37.686 C 28.252 37.350, 28.573 36.216, 28.259 34.573 C 27.683 31.561, 29.450 29, 32.103 29 C 34.231 29, 35.536 32.736, 34.523 35.928 C 34.161 37.068, 34.293 38, 34.816 38 C 35.339 38, 36.052 39.013, 36.400 40.250 C 37.020 42.453, 37.064 42.460, 38.516 40.559 C 39.332 39.491, 40 36.944, 40 34.898 C 40 31.971, 39.344 30.625, 36.923 28.589 C 33.484 25.695, 30.754 25.399, 26.888 27.500 M 331.364 27.170 C 327.609 28.988, 325.891 35.059, 328.010 39.019 C 328.986 40.841, 329.099 40.830, 331.260 38.704 C 332.837 37.153, 333.400 35.595, 333.163 33.444 C 332.744 29.641, 335.295 27.049, 337.834 28.699 C 339.691 29.906, 339.773 34.904, 337.954 36.028 C 337.257 36.459, 337.621 36.929, 338.915 37.268 C 340.062 37.567, 341 38.530, 341 39.406 C 341 40.656, 339.901 41, 335.917 41 C 329.618 41, 329.534 43.344, 335.816 43.807 C 341.415 44.220, 345 40.853, 345 35.182 C 345 28.024, 338.042 23.936, 331.364 27.170 M 290.536 28.961 C 289.139 30.504, 288.902 31.863, 289.424 35.341 C 290.045 39.482, 289.926 39.802, 287.543 40.400 C 285.674 40.869, 285 41.695, 285 43.519 C 285 45.966, 285.117 46, 293.500 46 C 299.642 46, 301.996 45.653, 301.985 44.750 C 301.962 42.917, 300.787 41.450, 298.282 40.131 C 296.407 39.144, 296.213 38.569, 297.032 36.417 C 298.403 32.810, 298.253 31.598, 296.133 29.153 C 293.826 26.493, 292.801 26.458, 290.536 28.961 M 121 37.616 C 115.225 42.327, 110.111 46.552, 109.635 47.006 C 109.157 47.462, 109.936 49.361, 111.376 51.249 C 112.810 53.129, 114.263 56.067, 114.606 57.779 C 115.119 60.343, 115.779 60.960, 118.364 61.285 L 121.500 61.680 118.250 61.840 C 115.399 61.980, 115 62.342, 115 64.789 C 115 66.322, 114.155 69.234, 113.123 71.259 L 111.246 74.940 121.490 81.470 C 127.123 85.061, 132.735 88, 133.960 88 C 135.310 88, 136.384 88.751, 136.686 89.907 C 136.960 90.956, 142.333 95.243, 148.625 99.433 L 160.065 107.053 163.532 104.408 C 165.440 102.953, 167 101.595, 167 101.391 C 167 101.186, 163.991 94.982, 160.314 87.603 C 153.677 74.286, 153.604 74.190, 150.564 74.675 C 146.501 75.322, 140.876 71.549, 139.678 67.374 C 138.810 64.345, 138.622 64.263, 130.146 63.245 L 121.500 62.206 130.085 62.708 L 138.671 63.209 139.967 60.081 C 140.679 58.360, 141.991 56.541, 142.881 56.038 C 144.324 55.223, 144.075 53.893, 140.596 43.812 C 135.783 29.863, 135.349 28.994, 133.215 29.025 C 132.272 29.039, 126.775 32.905, 121 37.616 M 172.496 50.609 L 159.492 59.084 159.845 63.518 L 160.198 67.952 173.108 74.517 C 185.918 81.031, 186.025 81.064, 186.888 78.791 C 188.765 73.851, 196.127 49.800, 195.823 49.603 C 195.645 49.489, 194.150 48.554, 192.500 47.527 C 190.850 46.500, 188.912 44.836, 188.193 43.830 C 187.475 42.823, 186.575 42.030, 186.193 42.067 C 185.812 42.104, 179.648 45.948, 172.496 50.609 M 320.338 54.570 C 315.495 60.809, 311.180 67.171, 310.748 68.707 C 310.273 70.397, 310.774 77.623, 312.016 87 C 314.831 108.246, 314.687 107.705, 317.735 108.470 C 320.095 109.062, 322.032 107.460, 337.426 92.185 C 346.817 82.868, 355.513 75.006, 356.751 74.715 C 357.990 74.425, 358.751 74.595, 358.442 75.093 C 358.134 75.592, 357.341 76, 356.680 76 C 356.019 76, 347.622 83.866, 338.020 93.480 C 324.284 107.233, 320.821 111.221, 321.780 112.180 C 323.458 113.858, 323.314 120.107, 321.540 122.640 C 319.317 125.814, 314.640 127.419, 311.156 126.204 C 308.438 125.257, 308.060 125.460, 305.314 129.346 C 303.699 131.631, 298.834 138.380, 294.504 144.345 C 287.894 153.450, 286.821 155.456, 287.818 156.845 C 288.471 157.755, 289.449 159.529, 289.992 160.788 C 290.953 163.015, 291.262 162.860, 301.740 154.905 C 307.658 150.411, 313.868 145.197, 315.541 143.318 C 318.656 139.819, 322 139.518, 322 142.737 C 322 143.575, 323.662 147.339, 325.694 151.101 C 328.902 157.039, 329.686 157.866, 331.644 157.374 C 334.387 156.686, 339 160.840, 339 164 C 339 166.575, 334.744 171, 332.268 171 C 327.169 171, 323.685 164.656, 326.459 160.422 C 327.908 158.210, 327.808 157.649, 324.913 151.778 C 320.434 142.697, 318.882 142.918, 303.296 154.855 C 294.018 161.962, 290.968 164.868, 290.486 167.064 C 289.626 170.978, 284.650 175.001, 280.673 174.996 C 276.492 174.991, 271.211 171.687, 270.433 168.589 C 269.855 166.286, 269.459 166.145, 264.656 166.527 C 259.245 166.957, 259.892 166.560, 266.311 165.510 C 269.708 164.954, 270.088 164.602, 269.811 162.269 C 269.539 159.978, 266.814 158.183, 248.010 147.906 C 235.316 140.968, 226.260 136.580, 225.885 137.186 C 225.537 137.750, 227.445 143.888, 230.126 150.825 C 232.807 157.763, 235 163.566, 235 163.720 C 235 163.874, 236.318 164, 237.929 164 C 240.663 164, 244 166.155, 244 167.920 C 244 168.347, 246.562 168.295, 249.693 167.804 C 252.825 167.313, 256.312 167.066, 257.443 167.255 C 258.575 167.445, 256.238 167.960, 252.250 168.401 C 247.498 168.927, 245 169.638, 245 170.467 C 245 173.119, 240.876 177, 238.058 177 C 235.596 177, 234.950 177.717, 232.661 182.997 C 231.230 186.295, 230.322 189.675, 230.642 190.509 C 230.962 191.343, 230.666 192.698, 229.983 193.520 C 228.885 194.844, 236.265 194.985, 294.622 194.757 L 360.500 194.500 360.303 134.747 C 360.099 72.805, 359.934 70.297, 356 69.248 C 354.667 68.892, 354.667 68.975, 356 69.989 C 357.209 70.910, 357.037 71, 355.112 70.454 C 352.960 69.845, 352.774 70.036, 353.224 72.389 C 353.498 73.825, 353.335 75, 352.861 75 C 351.624 75, 351.798 70.602, 353.086 69.314 C 353.868 68.532, 352.708 65.042, 348.947 56.864 C 346.072 50.614, 343.435 45.174, 343.085 44.775 C 342.735 44.376, 340.826 44.548, 338.842 45.156 C 335.951 46.044, 334.629 45.962, 332.189 44.744 L 329.142 43.224 320.338 54.570 M 34.065 45.141 C 32.726 45.653, 31.046 45.848, 30.333 45.574 C 29.449 45.235, 28.399 47.220, 27.046 51.788 C 25.952 55.480, 23.006 65.475, 20.500 74 C 17.993 82.525, 15.717 90.234, 15.441 91.132 C 15.083 92.300, 15.731 92.920, 17.720 93.311 C 19.249 93.612, 21.207 94.003, 22.072 94.179 C 24.151 94.604, 45 70.335, 45 67.490 C 45 66.341, 45.508 64.892, 46.129 64.271 C 46.968 63.432, 46.041 60.874, 42.524 54.321 C 39.921 49.469, 37.500 45.210, 37.145 44.854 C 36.790 44.499, 35.404 44.628, 34.065 45.141 M 267.425 51.586 C 255.889 58.697, 255.370 59.160, 255.784 61.981 C 256.116 64.246, 258.555 66.934, 266.254 73.522 C 271.774 78.245, 276.628 81.747, 277.041 81.305 C 277.747 80.548, 290 52.277, 290 51.405 C 290 51.182, 289.357 51, 288.571 51 C 287.785 51, 285.472 49.425, 283.431 47.500 C 281.390 45.575, 279.671 44.032, 279.610 44.071 C 279.550 44.111, 274.066 47.492, 267.425 51.586 M 88.379 47.382 C 81.290 50.592, 77.333 60.420, 79.944 68.331 C 82.459 75.950, 92.037 81.144, 99.744 79.069 C 113.960 75.241, 117.592 57.254, 105.838 48.885 C 101.878 46.065, 92.979 45.299, 88.379 47.382 M 93.934 50.346 C 91.507 51.556, 89.460 57.548, 91.123 58.576 C 91.605 58.874, 92 60.224, 92 61.575 C 92 63.387, 91.104 64.460, 88.589 65.659 C 85.466 67.148, 83.340 71.123, 84.588 73.142 C 85.309 74.308, 98.372 75.091, 103 74.246 C 107.023 73.511, 107.467 73.163, 107.186 70.962 C 107.013 69.608, 106.173 68.050, 105.318 67.500 C 99.892 64.010, 99.660 63.583, 101.066 59.695 C 103.480 53.017, 99.374 47.634, 93.934 50.346 M 294.180 51.882 C 290.981 52.478, 290.627 53.043, 284.430 67.454 C 280.894 75.679, 278 82.688, 278 83.030 C 278 83.371, 284.584 89.242, 292.632 96.075 C 303.706 105.478, 307.870 108.450, 309.754 108.295 C 311.123 108.182, 312.501 107.833, 312.816 107.518 C 313.842 106.492, 308.785 72.569, 307.360 70.918 C 306.609 70.048, 306.086 68.237, 306.197 66.893 C 306.461 63.698, 300.486 50.961, 298.803 51.132 C 298.086 51.204, 296.006 51.542, 294.180 51.882 M 144.856 56.516 C 141.114 58.549, 139.655 63.239, 141.438 67.505 C 143.076 71.427, 145.614 73.012, 150.184 72.968 C 158.284 72.891, 161.875 63.721, 156.077 57.923 C 152.816 54.662, 149.122 54.199, 144.856 56.516 M 148.043 58.448 C 147.343 59.292, 146.969 61.336, 147.212 62.991 C 147.497 64.933, 147.221 66, 146.434 66 C 145.410 66, 144 68.076, 144 69.582 C 144 69.812, 146.475 70, 149.500 70 C 153.638 70, 155 69.641, 155 68.550 C 155 67.752, 154.438 66.740, 153.750 66.300 C 153.063 65.860, 152.500 63.706, 152.500 61.514 C 152.500 57.146, 150.351 55.667, 148.043 58.448 M 249.332 60.578 C 248.999 61.445, 249.463 62.892, 250.363 63.792 C 251.879 65.307, 252.121 65.307, 253.637 63.792 C 255.681 61.747, 254.743 59, 252 59 C 250.865 59, 249.665 59.710, 249.332 60.578 M 250.800 63.200 C 251.733 64.133, 252.267 64.133, 253.200 63.200 C 254.133 62.267, 253.867 62, 252 62 C 250.133 62, 249.867 62.267, 250.800 63.200 M 47.011 65.487 C 45.349 67.489, 46.456 70, 49 70 C 50.135 70, 51.324 69.319, 51.643 68.487 C 52.218 66.990, 50.457 64, 49 64 C 48.585 64, 47.689 64.669, 47.011 65.487 M 251.691 65.945 C 249.587 66.361, 245.777 70.234, 236.514 81.376 C 226.235 93.738, 224.277 96.610, 224.929 98.376 C 225.360 99.544, 225.543 100.977, 225.336 101.561 C 225.050 102.367, 236.347 108.228, 245.079 111.803 C 245.487 111.970, 245.581 109.471, 245.289 106.251 C 244.868 101.605, 245.176 99.579, 246.782 96.447 C 251.702 86.850, 262.240 82.566, 271.457 86.417 C 274.428 87.659, 274.921 87.649, 275.425 86.336 C 276.406 83.777, 276.226 83.546, 267.297 75.927 C 254.877 65.329, 254.861 65.319, 251.691 65.945 M 47 68 C 47 68.550, 47.675 69, 48.500 69 C 49.325 69, 50 68.550, 50 68 C 50 67.450, 49.325 67, 48.500 67 C 47.675 67, 47 67.450, 47 68 M 57 67.741 C 55.075 67.973, 52.643 69.082, 51.595 70.206 C 49.764 72.170, 49.739 72.980, 50.974 90.997 L 52.258 109.744 55.828 110.839 C 57.792 111.442, 59.459 111.837, 59.534 111.718 C 59.608 111.598, 65.108 103.948, 71.757 94.717 L 83.844 77.935 81.532 75.440 C 80.260 74.068, 78.666 71.608, 77.989 69.973 L 76.757 67 68.629 67.160 C 64.158 67.248, 58.925 67.510, 57 67.741 M 157.076 71.419 L 154.804 73.838 161.388 87.531 C 166.963 99.123, 168.244 101.108, 169.737 100.465 C 170.706 100.047, 173.506 99.593, 175.958 99.456 L 180.416 99.206 183.103 90.853 C 184.581 86.259, 185.838 83.045, 185.895 83.712 C 185.953 84.378, 184.941 88.258, 183.647 92.334 L 181.294 99.745 185.123 101.434 C 187.229 102.363, 189.829 104.238, 190.900 105.600 C 192.424 107.537, 193.463 107.954, 195.674 107.515 C 198.327 106.988, 198.356 107.017, 196.145 107.983 C 194.397 108.748, 193.992 109.462, 194.570 110.756 C 194.999 111.715, 195.458 115.161, 195.591 118.414 L 195.832 124.328 203.666 127.241 C 207.975 128.843, 213.097 130.742, 215.048 131.461 C 217.901 132.513, 218.932 132.523, 220.313 131.513 C 221.934 130.328, 221.935 129.632, 220.327 119.025 C 219.084 110.833, 218.201 107.644, 217.062 107.244 C 216.203 106.943, 214.721 106.028, 213.770 105.211 C 212.235 103.894, 211.346 103.920, 205.930 105.440 C 202.570 106.382, 199.616 106.950, 199.366 106.700 C 199.117 106.450, 201.857 105.449, 205.456 104.474 C 210.382 103.141, 212 102.266, 212 100.933 C 212 99.960, 212.235 98.552, 212.522 97.804 C 212.886 96.855, 205.104 92.310, 186.693 82.722 C 172.200 75.175, 160.119 69, 159.846 69 C 159.572 69, 158.326 70.089, 157.076 71.419 M 35.097 83.128 L 24.776 95.257 26.888 99.014 C 29.394 103.473, 29.732 111.649, 27.532 114.559 C 26.724 115.626, 26.049 116.831, 26.032 117.236 C 26.014 117.641, 29.038 119.531, 32.750 121.437 C 36.462 123.343, 39.151 124.924, 38.725 124.951 C 38.299 124.978, 34.924 123.489, 31.225 121.642 L 24.500 118.284 21.500 120.137 C 15.966 123.555, 7.384 121.846, 3.168 116.486 L 1 113.730 1 154.365 L 1 195 114.122 195 C 214.132 195, 227.102 194.828, 226.011 193.513 C 224.527 191.725, 225.363 189, 227.395 189 C 228.767 189, 234.039 179.076, 233.967 176.629 C 233.948 176.008, 233.053 174.443, 231.976 173.151 C 230.062 170.853, 229.839 170.826, 221.850 171.901 C 212.760 173.124, 205.819 173.212, 213 172.013 C 215.475 171.600, 220.431 170.954, 224.013 170.577 C 229.899 169.957, 230.693 169.599, 232.270 166.853 C 234 163.838, 233.975 163.711, 229.309 151.359 C 223.038 134.759, 222.838 134.773, 210.307 152.736 L 201.074 165.973 203.287 169.424 C 204.504 171.322, 206.175 173.076, 207 173.321 C 208.150 173.664, 208.091 173.795, 206.750 173.884 C 205.518 173.966, 205 174.847, 205 176.864 C 205 180.507, 200.862 184.748, 196.509 185.564 C 192.289 186.356, 187.535 183.936, 185.472 179.946 C 184.110 177.312, 183.501 176.993, 180.705 177.451 C 176.637 178.116, 162.117 180, 161.053 180 C 160.611 180, 160.250 181.210, 160.250 182.690 C 160.250 185.863, 156.839 189, 153.389 189 C 150.153 189, 147 185.624, 147 182.159 C 147 179.582, 145.239 178.144, 128.037 166.681 L 109.074 154.043 105.484 156.272 L 101.895 158.500 102.400 165.372 C 102.799 170.809, 103.332 172.544, 104.952 173.679 C 108.629 176.254, 106.933 181, 102.335 181 C 101.090 181, 99.605 180.130, 99.035 179.066 C 97.665 176.506, 97.691 176.368, 99.910 174.289 C 101.540 172.762, 101.741 171.532, 101.284 165.890 L 100.749 159.279 96.624 158.224 C 94.356 157.644, 91.600 156.888, 90.500 156.545 C 88.918 156.051, 86.439 157.993, 78.646 165.832 C 69.863 174.667, 68.912 175.968, 69.896 177.806 C 73.552 184.637, 68.706 193, 61.093 193 C 55.493 193, 50.964 188.978, 50.694 183.765 C 50.503 180.081, 50.402 179.995, 43.233 177.375 C 36.740 175.002, 35.782 174.878, 34.233 176.208 C 31.502 178.553, 29.035 179.088, 26.678 177.847 C 23.719 176.290, 23.033 175.058, 23.015 171.273 C 22.997 167.463, 26.612 164.502, 30.398 165.225 C 32.611 165.648, 33.404 164.431, 40.896 149.091 C 45.354 139.966, 49.001 132.179, 49 131.786 C 49 131.393, 47.538 130.043, 45.750 128.786 C 43.132 126.945, 42.448 125.722, 42.231 122.500 C 41.898 117.546, 44.875 112.320, 48.557 111.396 C 51.130 110.751, 51.167 110.620, 50.613 104.119 C 50.303 100.479, 49.795 93.225, 49.484 88 C 48.710 75.007, 48.035 71, 46.621 71 C 45.959 71, 40.773 76.458, 35.097 83.128 M 354 73 C 354 73.550, 354.675 74, 355.500 74 C 356.325 74, 357 73.550, 357 73 C 357 72.450, 356.325 72, 355.500 72 C 354.675 72, 354 72.450, 354 73 M 107.250 77.944 C 106.013 78.976, 105 80.091, 105 80.421 C 105 80.752, 107.964 85.716, 111.587 91.453 C 116.153 98.684, 118.829 101.978, 120.312 102.192 C 121.488 102.361, 122.983 103.573, 123.634 104.885 C 124.589 106.807, 127.874 108.310, 140.576 112.635 C 149.242 115.586, 156.418 117.888, 156.522 117.750 C 156.625 117.613, 157.412 115.395, 158.270 112.822 L 159.830 108.143 148.157 100.642 C 141.738 96.517, 135.615 93.222, 134.551 93.321 C 133.412 93.426, 132.126 92.540, 131.424 91.165 C 130.332 89.027, 112.061 75.956, 110.272 76.033 C 109.848 76.052, 108.487 76.911, 107.250 77.944 M 72.207 96.144 C 60.231 112.806, 59.960 113.298, 61.703 115.225 C 62.903 116.550, 63.439 118.591, 63.330 121.413 L 63.167 125.624 74.334 131.161 L 85.500 136.699 87.817 133.861 C 89.091 132.300, 91.566 130.647, 93.317 130.188 L 96.500 129.353 96.269 121.426 C 96.142 117.067, 95.761 106.494, 95.422 97.932 L 94.806 82.363 90.653 81.136 C 88.369 80.461, 86.050 79.713, 85.500 79.475 C 84.950 79.236, 78.968 86.738, 72.207 96.144 M 98.689 81.722 L 95.877 82.145 96.476 100.322 C 97.343 126.673, 97.619 128.688, 100.467 129.402 C 101.758 129.726, 103.478 130.246, 104.290 130.558 C 106.473 131.396, 118.483 110.287, 116.905 108.385 C 116.276 107.628, 116.064 105.880, 116.426 104.439 C 116.949 102.357, 115.776 99.813, 110.429 91.426 C 106.774 85.692, 103.269 81.067, 102.641 81.150 C 102.014 81.232, 100.235 81.490, 98.689 81.722 M 276.385 86.438 C 276.003 87.433, 276.554 88.985, 277.757 90.301 C 281.612 94.520, 283.403 99.300, 283.359 105.254 L 283.317 111.008 286.909 111.944 C 297.307 114.652, 302.880 116, 303.675 116 C 304.163 116, 305.074 114.642, 305.701 112.981 C 306.840 109.963, 306.840 109.963, 293.663 98.731 C 275.722 83.440, 277.147 84.454, 276.385 86.438 M 257.500 88.826 C 250.369 92.198, 246.312 99.293, 247.448 106.402 C 248.949 115.785, 256.251 121.559, 265.634 120.780 C 274.603 120.037, 280.037 114.603, 280.780 105.634 C 281.138 101.322, 280.780 99.380, 279.063 96.326 C 274.638 88.452, 265.218 85.176, 257.500 88.826 M 262.751 93.689 C 261.048 94.134, 260.718 94.976, 259.591 101.750 C 259.117 104.597, 259.326 105.005, 261.275 105.040 C 263.361 105.078, 263.330 105.173, 260.775 106.559 C 258.105 108.008, 256 110.818, 256 112.934 C 256 113.605, 259.150 114, 264.500 114 C 272.276 114, 273 113.833, 273 112.039 C 273 110.086, 272.297 109.220, 268.500 106.498 C 266.722 105.223, 266.695 105.060, 268.250 105.032 C 270.849 104.985, 270.667 97.667, 268 95 C 265.951 92.951, 265.758 92.903, 262.751 93.689 M 11.500 94.723 C -1.638 98.075, -0.587 117.904, 12.825 119.703 C 20.347 120.712, 26.104 116.485, 27.448 108.966 C 28.909 100.787, 19.761 92.616, 11.500 94.723 M 214.655 96.829 C 211.272 100.567, 213.922 106, 219.129 106 C 222.482 106, 224 104.234, 224 100.335 C 224 95.282, 218.069 93.056, 214.655 96.829 M 12.532 97.965 C 10.817 99.860, 10.812 101.219, 12.503 106.623 C 13.046 108.359, 12.604 108.942, 10.083 109.821 C 8.388 110.412, 7 111.333, 7 111.866 C 7 112.400, 6.727 113.548, 6.393 114.418 C 5.868 115.785, 6.955 116, 14.393 116 C 22.146 116, 23 115.814, 23 114.122 C 23 113.090, 22.325 111.685, 21.500 111 C 20.675 110.315, 20 109.135, 20 108.378 C 20 107.620, 19.578 107, 19.063 107 C 18.547 107, 18.383 105.415, 18.697 103.477 C 19.115 100.903, 18.787 99.423, 17.480 97.977 C 15.253 95.517, 14.748 95.516, 12.532 97.965 M 217.882 98.167 C 217.816 98.900, 217.836 100.063, 217.925 100.750 C 218.015 101.438, 217.618 102, 217.044 102 C 216.470 102, 216 102.450, 216 103 C 216 103.550, 217.350 104, 219 104 C 221.917 104, 222.765 103.099, 221.263 101.596 C 220.857 101.191, 220.520 100.142, 220.513 99.266 C 220.497 97.320, 218.048 96.297, 217.882 98.167 M 167.922 104.274 C 160.390 109.349, 157.809 118.581, 161.656 126.688 C 166.352 136.585, 180.957 138.567, 188.698 130.358 C 199.162 119.263, 191.680 102.015, 176.398 102.004 C 172.742 102.001, 170.339 102.645, 167.922 104.274 M 118.229 104.171 C 116.743 105.657, 116.634 107, 118 107 C 118.550 107, 119 106.325, 119 105.500 C 119 104.675, 119.450 104, 120 104 C 120.550 104, 121 104.675, 121 105.500 C 121 106.325, 121.483 107, 122.073 107 C 123.703 107, 122.695 103.565, 120.968 103.232 C 120.138 103.072, 118.905 103.495, 118.229 104.171 M 222.133 106.038 L 219.766 108.010 221.395 119.184 C 222.291 125.329, 223.249 130.582, 223.524 130.857 C 223.799 131.132, 226.381 130.635, 229.262 129.753 C 232.143 128.870, 239.111 126.746, 244.748 125.032 L 254.995 121.916 250.748 117.863 C 248.081 115.319, 242.509 111.986, 235.778 108.906 C 229.880 106.208, 224.930 104.015, 224.778 104.033 C 224.625 104.052, 223.435 104.954, 222.133 106.038 M 172.223 106.557 C 169.406 108.530, 169.361 112.230, 172.099 116.660 C 173.787 119.391, 173.959 120.345, 172.977 121.528 C 172.305 122.338, 171.190 123, 170.500 123 C 168.798 123, 167.301 124.954, 166.472 128.256 L 165.783 131 176.392 131 C 182.226 131, 187 130.842, 187 130.649 C 187 128.551, 184.432 123.955, 183.007 123.502 C 179.003 122.231, 178.567 120.232, 181.402 116.141 C 183.604 112.965, 183.894 111.851, 183.080 109.711 C 181.353 105.168, 176.301 103.700, 172.223 106.557 M 122.981 109.081 C 122.166 109.507, 120.825 110.062, 120 110.314 C 119.175 110.567, 115.898 115.336, 112.719 120.912 L 106.938 131.052 109.460 134.359 C 110.848 136.179, 112.253 139.015, 112.582 140.662 L 113.181 143.657 124.591 144.579 L 136 145.500 138.030 142.750 C 139.585 140.643, 140.894 140, 143.626 140 C 146.521 140, 148.367 138.969, 153.433 134.521 L 159.674 129.042 158.139 124.042 L 156.605 119.042 140.533 113.674 C 130.737 110.402, 123.883 108.609, 122.981 109.081 M 308.455 111.455 C 303.334 116.575, 306.696 125, 313.860 125 C 318.115 125, 322 121.182, 322 117 C 322 112.889, 318.111 109, 314 109 C 312.052 109, 310.002 109.907, 308.455 111.455 M 313.086 112.397 C 312.365 113.265, 312.064 114.723, 312.415 115.638 C 312.817 116.686, 312.215 118.079, 310.790 119.401 L 308.527 121.500 313.371 121.809 C 316.035 121.979, 318.428 121.906, 318.687 121.646 C 318.947 121.386, 318.410 120.029, 317.494 118.631 C 316.577 117.232, 316.077 115.684, 316.382 115.191 C 316.687 114.698, 316.364 113.513, 315.665 112.557 C 314.514 110.982, 314.272 110.967, 313.086 112.397 M 46.455 114.455 C 44.013 116.896, 43.203 121.758, 44.621 125.455 C 45.432 127.567, 50.199 130, 53.527 130 C 57.001 130, 62 124.992, 62 121.511 C 62 118.461, 60.371 115.036, 58.087 113.282 C 55.269 111.118, 49.176 111.733, 46.455 114.455 M 277.948 117.085 C 275.047 120.198, 272.235 122.203, 270.198 122.610 C 268.439 122.962, 267 123.740, 267 124.339 C 267 124.937, 269.113 131.818, 271.696 139.629 L 276.392 153.830 280.946 154.239 C 283.451 154.464, 285.553 154.614, 285.617 154.574 C 285.681 154.533, 290.715 147.669, 296.804 139.320 C 305.678 127.152, 307.609 123.920, 306.535 123.029 C 305.799 122.418, 304.931 120.863, 304.608 119.573 C 304.100 117.550, 302.750 116.926, 294.760 115.020 C 289.667 113.805, 284.825 112.673, 284 112.505 C 283.175 112.336, 280.451 114.397, 277.948 117.085 M 50.383 116.445 C 50.048 117.317, 50.010 118.929, 50.297 120.028 C 50.641 121.343, 50.166 122.376, 48.910 123.048 C 47.859 123.610, 47 124.730, 47 125.535 C 47 126.659, 48.397 127, 53 127 C 59.210 127, 60.378 126.079, 57.088 123.774 C 55.760 122.844, 55.226 121.377, 55.338 118.968 C 55.473 116.072, 55.128 115.447, 53.246 115.180 C 51.886 114.987, 50.750 115.489, 50.383 116.445 M 255.885 122.448 C 255.605 122.729, 248.878 124.942, 240.938 127.366 C 228.588 131.136, 226.549 132.043, 226.842 133.637 C 227.029 134.661, 227.479 135.625, 227.842 135.778 C 228.204 135.930, 237.950 141.188, 249.500 147.461 L 270.500 158.866 272.845 156.565 L 275.190 154.265 270.345 139.242 C 265.662 124.721, 265.400 124.202, 262.500 123.695 C 260.850 123.406, 258.801 122.893, 257.948 122.554 C 257.094 122.215, 256.166 122.167, 255.885 122.448 M 193.606 127.779 C 191.952 130.957, 188.574 134.193, 184.888 136.128 L 182.276 137.500 186.635 151.149 L 190.995 164.798 195.574 165.162 L 200.154 165.527 208.888 153.013 C 219.825 137.345, 219.171 138.529, 218.459 135.692 C 218.068 134.136, 216.738 132.930, 214.678 132.265 C 212.930 131.701, 207.792 129.849, 203.261 128.149 L 195.021 125.058 193.606 127.779 M 59.851 128.604 C 58.409 130.046, 56.045 131.141, 54.087 131.274 C 50.843 131.495, 50.577 131.881, 42.384 148.239 C 37.773 157.445, 34 165.706, 34 166.596 C 34 168.548, 31.622 169.422, 60.717 156.779 L 84 146.662 84 143.413 C 84 141.626, 84.232 139.559, 84.516 138.820 C 84.866 137.907, 81.385 135.660, 73.664 131.817 L 62.296 126.158 59.851 128.604 M 154.153 135.600 C 149.300 139.991, 148.183 141.515, 149.050 142.561 C 149.661 143.297, 150.016 145.281, 149.839 146.969 C 149.523 149.986, 149.821 150.206, 167.348 159.888 L 185.179 169.739 187.610 167.485 L 190.041 165.232 185.771 151.633 L 181.500 138.033 177.218 138.017 C 172.081 137.997, 166.437 135.792, 162.933 132.435 L 160.366 129.977 154.153 135.600 M 92.108 132.716 C 87.258 135.106, 84.341 141.857, 85.905 147.077 C 87.146 151.220, 91.687 155.632, 95.763 156.655 C 97.203 157.017, 100.178 156.681, 102.403 155.905 C 110.059 153.237, 113.270 144.235, 109.040 137.299 C 105.410 131.345, 98.622 129.508, 92.108 132.716 M 220.667 132.667 C 220.300 133.033, 220.036 134.271, 220.079 135.417 C 220.122 136.563, 220.385 136.938, 220.662 136.250 C 221.242 134.814, 224 134.539, 224 135.917 C 224 136.421, 223.539 137.062, 222.975 137.342 C 222.411 137.621, 222.524 137.737, 223.225 137.598 C 223.926 137.459, 224.642 136.143, 224.816 134.673 C 225.062 132.603, 224.705 132, 223.233 132 C 222.188 132, 221.033 132.300, 220.667 132.667 M 94.557 135.223 C 92.507 138.149, 92.469 144, 94.500 144 C 95.325 144, 96 144.450, 96 145 C 96 145.550, 95.357 146, 94.571 146 C 92.531 146, 90 148.807, 90 151.071 C 90 152.825, 90.772 153, 98.500 153 C 107.611 153, 108.406 152.453, 105.443 148.223 C 104.587 147, 103.237 146, 102.443 146 C 101.649 146, 101 145.550, 101 145 C 101 144.450, 101.695 144, 102.545 144 C 103.761 144, 103.992 143.137, 103.625 139.949 C 103.369 137.721, 102.619 135.246, 101.958 134.449 C 100.169 132.294, 96.327 132.696, 94.557 135.223 M 139.200 142.200 C 137.407 143.993, 137.752 148.466, 139.829 150.345 C 141.822 152.149, 145.540 152.554, 146.459 151.066 C 146.776 150.553, 145.672 150.172, 144.004 150.219 C 140.418 150.321, 138.974 149.252, 141.003 147.998 C 141.798 147.507, 142.459 146.187, 142.474 145.066 C 142.488 143.944, 142.950 143.132, 143.500 143.263 C 144.050 143.393, 144.452 144.398, 144.394 145.495 C 144.285 147.559, 146.898 150.181, 148.239 149.352 C 149.574 148.527, 149.056 144.199, 147.429 142.571 C 145.569 140.712, 140.899 140.501, 139.200 142.200 M 111.830 148.916 L 110.160 152.974 128.666 165.546 C 146.642 177.758, 147.240 178.073, 149.551 176.559 C 152.753 174.461, 155.218 174.597, 158.329 177.044 C 160.877 179.048, 161.148 179.057, 172.152 177.523 C 178.325 176.662, 183.507 175.826, 183.667 175.667 C 183.826 175.507, 184.079 174.306, 184.228 172.998 C 184.471 170.877, 182.592 169.556, 166.930 160.828 C 150.223 151.519, 149.208 151.095, 146.251 152.211 C 142.527 153.617, 138.090 152.061, 137.310 149.076 C 136.782 147.059, 134.659 146.590, 121 145.472 L 113.500 144.858 111.830 148.916 M 59.275 158.334 C 37.913 167.685, 36.048 168.701, 36.025 171.004 C 36.003 173.192, 36.906 173.860, 43.168 176.288 L 50.336 179.067 53.466 176.033 C 56.870 172.733, 62.177 171.954, 66.282 174.151 C 68.248 175.203, 69.265 174.411, 78.076 164.969 L 87.718 154.636 85.760 151.318 C 84.683 149.493, 83.509 148.038, 83.151 148.084 C 82.793 148.130, 72.049 152.743, 59.275 158.334 M 273.923 157.923 C 266.832 165.014, 274.293 176.412, 283.505 172.562 C 289.891 169.894, 291.166 162, 285.923 157.589 C 281.756 154.082, 277.650 154.197, 273.923 157.923 M 329.762 159.073 C 323.643 162.638, 327.297 171.627, 334.001 169.500 C 338.712 168.005, 339.023 161.243, 334.477 159.171 C 331.464 157.799, 331.933 157.809, 329.762 159.073 M 278 162.323 C 278 164.479, 277.434 166.003, 276.500 166.362 C 271.833 168.153, 278.173 171.748, 283.598 170.386 C 286.455 169.669, 286.536 169.249, 284.296 166.775 C 283.359 165.739, 282.572 163.679, 282.546 162.196 C 282.512 160.179, 281.933 159.420, 280.250 159.180 C 278.288 158.902, 278 159.305, 278 162.323 M 330.469 161.050 C 329.551 162.536, 330.281 163.062, 331.886 162.071 C 332.745 161.539, 332.848 161.024, 332.176 160.609 C 331.605 160.256, 330.837 160.455, 330.469 161.050 M 331.250 164.713 C 328.858 165.166, 328.312 166.457, 330.057 167.535 C 331.635 168.511, 336.201 167.102, 335.759 165.776 C 335.298 164.394, 334.244 164.146, 331.250 164.713 M 233.517 166.982 C 232.040 168.613, 231.836 169.623, 232.568 171.677 C 233.875 175.344, 236.282 176.642, 239.588 175.462 C 242.938 174.265, 244.222 171.083, 242.641 167.895 C 241.029 164.642, 236.082 164.147, 233.517 166.982 M 25.655 167.829 C 23.719 169.968, 23.484 174.084, 25.200 175.800 C 27.154 177.754, 32.778 177.283, 33.965 175.066 C 35.501 172.195, 35.233 170.233, 33 168 C 30.509 165.509, 27.811 165.446, 25.655 167.829 M 190.500 167.208 C 185.322 170.178, 184.293 177.384, 188.455 181.545 C 190.217 183.307, 191.980 183.991, 194.705 183.968 C 198.850 183.933, 201.046 182.677, 202.837 179.316 C 206.950 171.593, 198.063 162.870, 190.500 167.208 M 27.374 168.469 C 27.071 169.258, 27.133 170.406, 27.512 171.019 C 27.890 171.632, 27.368 172.764, 26.350 173.535 C 24.657 174.818, 24.818 174.939, 28.250 174.968 C 30.313 174.986, 32 174.550, 32 174 C 32 173.450, 31.498 173, 30.883 173 C 30.238 173, 29.964 171.967, 30.235 170.550 C 30.753 167.840, 28.300 166.056, 27.374 168.469 M 236 167.787 C 236 168.220, 236.910 168.643, 238.022 168.727 C 239.134 168.810, 239.782 168.456, 239.463 167.939 C 238.760 166.803, 236 166.681, 236 167.787 M 193.011 170.487 C 192.332 171.305, 192.064 172.723, 192.415 173.638 C 192.807 174.659, 192.270 176.031, 191.027 177.190 C 188.238 179.788, 188.479 180.697, 192.102 181.228 C 198.570 182.178, 202.605 179.557, 198.346 177.173 C 197.313 176.595, 196.936 175.610, 197.342 174.551 C 198.032 172.754, 196.507 169, 195.087 169 C 194.624 169, 193.689 169.669, 193.011 170.487 M 235 172.652 C 235 173.483, 236.151 174, 238 174 C 239.938 174, 241 173.493, 241 172.567 C 241 171.622, 239.977 171.163, 238 171.219 C 236.193 171.270, 235 171.840, 235 172.652 M 54.636 176.636 C 50.890 180.382, 51.048 185.202, 55.046 189.200 C 57.669 191.823, 58.600 192.164, 61.737 191.655 C 63.741 191.330, 66.209 190.235, 67.222 189.222 C 68.235 188.209, 69.330 185.741, 69.655 183.737 C 70.164 180.600, 69.823 179.669, 67.200 177.046 C 63.202 173.048, 58.382 172.890, 54.636 176.636 M 100.362 175.500 C 99.496 177.757, 100.710 180.015, 102.719 179.884 C 104.246 179.785, 104.266 179.706, 102.857 179.331 C 101.793 179.048, 101.394 178.209, 101.724 176.947 C 102.323 174.657, 104 174.328, 104 176.500 C 104 177.325, 104.450 178, 105 178 C 106.356 178, 106.260 176.660, 104.800 175.200 C 103.153 173.553, 101.054 173.695, 100.362 175.500 M 58.557 178.223 C 56.680 180.902, 56.542 183.649, 58.250 184.338 C 59.039 184.656, 58.895 184.871, 57.857 184.921 C 56.490 184.987, 55 186.896, 55 188.582 C 55 188.812, 57.475 189, 60.500 189 C 66.401 189, 67.318 188.037, 63.777 185.557 C 62.555 184.701, 62.105 184, 62.777 184 C 64.653 184, 64.330 177.340, 62.418 176.607 C 60.230 175.767, 60.296 175.740, 58.557 178.223 M 150.223 177.557 C 145.966 180.538, 148.432 188, 153.674 188 C 158.604 188, 160.858 180.415, 156.777 177.557 C 155.555 176.701, 154.080 176, 153.500 176 C 152.920 176, 151.445 176.701, 150.223 177.557 M 152.155 180.272 C 152.331 181.619, 151.864 183.460, 151.115 184.361 C 149.898 185.828, 150.134 186, 153.378 186 C 155.370 186, 157 185.550, 157 185 C 157 184.450, 156.533 184, 155.962 184 C 155.391 184, 155.054 182.778, 155.212 181.286 C 155.421 179.316, 154.997 178.468, 153.667 178.196 C 152.225 177.901, 151.902 178.345, 152.155 180.272" stroke="none" fill="#f0f4f3" fill-rule="evenodd"/></svg>