<svg xmlns="http://www.w3.org/2000/svg" width="374" height="280" viewBox="0 0 374 280" version="1.1"><path d="M 269 37.670 C 267.075 37.862, 257.400 38.713, 247.500 39.561 C 229.996 41.059, 229.274 41.211, 221.296 45.057 C 216.784 47.233, 212.701 49.711, 212.224 50.564 C 211.540 51.786, 210.968 51.255, 209.526 48.058 C 208.520 45.826, 207.427 43.966, 207.098 43.923 C 206.769 43.881, 205.600 43.680, 204.500 43.475 C 203.400 43.271, 201.375 43.686, 200 44.397 C 198.625 45.109, 192.325 48.417, 186 51.749 C 139.580 76.201, 141 75.368, 141 78.147 C 141 79.900, 144.262 86.508, 150.736 97.871 C 152.105 100.275, 152.827 102.075, 152.339 101.871 C 151.139 101.369, 135.157 90.510, 127.877 85.250 C 124.641 82.912, 121.419 81, 120.716 81 C 120.013 81, 116.916 82.577, 113.834 84.505 C 108.777 87.668, 107.232 89.593, 97.981 104.255 C 92.343 113.190, 84.866 124.945, 81.365 130.378 C 77.864 135.811, 75 141.029, 75 141.973 C 75 142.918, 75.788 144.384, 76.750 145.232 C 78.598 146.862, 101.705 161.729, 108.500 165.661 L 112.500 167.976 81.200 167.988 C 55.656 167.998, 49.379 168.270, 47.062 169.468 L 44.224 170.936 43.516 192.218 C 43.127 203.923, 42.964 220.119, 43.154 228.209 C 43.525 243.988, 43.685 244.457, 49.535 246.928 C 52.755 248.287, 123.706 244.508, 127.799 242.759 C 129.556 242.008, 138.710 241.565, 154 241.490 C 182.529 241.352, 199.712 240.255, 202.715 238.382 C 203.933 237.622, 206.295 237, 207.965 237 C 209.634 237, 211 236.662, 211.001 236.250 C 211.001 235.838, 208.749 235.656, 205.997 235.847 C 202.257 236.106, 200.095 235.664, 197.436 234.095 C 193.736 231.912, 190.731 231.885, 184 233.975 C 177.629 235.954, 166.935 236.927, 164.376 235.761 C 162.292 234.812, 162 234, 162 229.153 C 162 223.987, 165.277 209.732, 166.978 207.500 C 167.397 206.950, 167.964 203.562, 168.237 199.971 C 168.762 193.074, 171.927 185.349, 174.655 184.302 C 176.061 183.763, 179.183 183.665, 184.275 184.003 C 185.951 184.114, 185.945 184.270, 184.167 186.810 C 181.707 190.323, 177.972 200.466, 178.100 203.288 C 178.161 204.623, 178.556 203.992, 179.096 201.697 C 179.588 199.605, 182.016 194.147, 184.492 189.568 C 191.569 176.477, 191.992 175.590, 191.915 174 C 191.875 173.175, 191.638 172.993, 191.389 173.595 C 191.068 174.372, 189.428 174.299, 185.750 173.345 C 182.898 172.605, 178.481 172, 175.936 172 C 171.869 172, 165 169.719, 165 168.368 C 165 168.101, 165.520 168.203, 166.155 168.595 C 166.870 169.038, 167.038 168.870, 166.595 168.155 C 166.203 167.520, 165.418 167, 164.851 167 C 163.527 167, 160.077 162.883, 160.033 161.250 C 160.015 160.563, 159.538 160, 158.974 160 C 158.386 160, 158.600 161.259, 159.474 162.950 C 161.504 166.875, 161.461 167, 158.083 167 C 154.406 167, 153.770 165.326, 155.994 161.500 C 158.169 157.758, 159.363 151.923, 157.885 152.259 C 156.614 152.548, 153 146.264, 153 143.766 C 153 140.689, 151.583 141.891, 148.861 147.278 C 147.410 150.150, 145.605 152.625, 144.852 152.777 C 144.098 152.929, 140.560 151.174, 136.990 148.875 C 133.421 146.577, 128.250 143.269, 125.500 141.523 C 122.750 139.778, 117.463 136.419, 113.750 134.058 C 110.037 131.697, 107 129.108, 107 128.305 C 107 126.076, 119.023 105.997, 120.342 106.022 C 120.979 106.034, 122.507 106.822, 123.739 107.772 C 126.243 109.705, 126.313 109.468, 120.212 119.699 L 117.112 124.898 121.907 127.848 L 126.702 130.798 130.435 124.417 L 134.168 118.036 137.084 119.544 C 138.688 120.373, 139.990 121.377, 139.977 121.776 C 139.965 122.174, 138.451 125.289, 136.613 128.699 L 133.272 134.898 138.463 138.344 L 143.654 141.790 146.769 136.145 C 152.076 126.530, 152.310 126.318, 155.365 128.319 C 156.798 129.259, 157.881 130.809, 157.770 131.764 C 157.475 134.305, 160.267 142.837, 160.733 140.817 C 160.946 139.892, 160.420 137.780, 159.564 136.124 C 158.708 134.468, 158.406 132.867, 158.894 132.565 C 159.993 131.886, 162.454 135.569, 163.361 139.250 C 163.733 140.763, 164.528 142, 165.126 142 C 165.724 142, 165.936 141.275, 165.596 140.389 C 165.164 139.263, 165.410 138.943, 166.413 139.328 C 167.250 139.649, 168.507 138.875, 169.427 137.472 C 170.294 136.148, 171.587 135.288, 172.299 135.561 C 175.110 136.640, 188.402 132.902, 193.831 129.507 C 199.830 125.754, 202 126.061, 202 130.662 C 202 133.794, 205.140 139.879, 208.257 142.787 C 209.605 144.045, 213.811 146.094, 217.604 147.339 C 222.415 148.919, 224.396 150.042, 224.156 151.052 C 222.008 160.085, 221.032 166.583, 221.017 171.945 C 221.002 177.565, 220.656 178.750, 218.313 181.195 C 216.835 182.738, 216.123 184, 216.730 184 C 217.337 184, 218.062 183.539, 218.342 182.975 C 218.621 182.411, 218.726 182.524, 218.574 183.225 C 218.422 183.926, 217.357 184.467, 216.208 184.427 C 214.548 184.369, 214.305 184.701, 215.024 186.046 C 215.522 186.976, 215.645 188.021, 215.298 188.369 C 214.951 188.716, 215.218 189, 215.892 189 C 216.566 189, 216.826 189.472, 216.470 190.049 C 216.025 190.769, 215.395 190.742, 214.455 189.962 C 213.703 189.338, 212.505 189.169, 211.794 189.586 C 211.082 190.003, 211.357 189.366, 212.405 188.172 C 216.055 184.010, 212.225 186.033, 208.212 190.386 C 201.473 197.696, 200.741 199.920, 200.070 215.116 C 199.637 224.899, 199.050 229.262, 197.984 230.616 C 196.616 232.353, 196.636 232.393, 198.250 231.128 C 199.213 230.373, 200 230.012, 200 230.326 C 200 230.639, 201.350 230.425, 203 229.850 L 206 228.804 206.152 219.152 C 206.236 213.843, 206.409 209.050, 206.537 208.500 C 206.665 207.950, 206.821 205.561, 206.885 203.191 C 206.948 200.821, 207.408 199.134, 207.907 199.442 C 208.405 199.751, 208.579 199.108, 208.293 198.014 C 207.961 196.741, 208.365 195.797, 209.416 195.394 C 210.481 194.985, 210.850 194.103, 210.464 192.888 C 210.016 191.476, 210.256 191.161, 211.435 191.613 C 212.332 191.958, 213 191.689, 213 190.985 C 213 190.024, 213.332 190.031, 214.516 191.013 C 215.853 192.123, 215.740 192.769, 213.558 196.492 L 211.084 200.712 211.890 219.106 L 212.696 237.500 212.848 220.861 C 213.020 202.077, 212.415 203.697, 222.333 195.460 C 226.812 191.739, 228.527 190.843, 229.723 191.597 C 230.579 192.137, 233.686 197.061, 236.627 202.539 C 240.935 210.561, 243.535 213.983, 249.988 220.118 C 254.395 224.308, 258 228.333, 258 229.063 C 258 229.793, 256.791 231.653, 255.313 233.195 L 252.626 236 257.063 235.955 L 261.500 235.910 258.500 234.536 C 255.970 233.378, 255.833 233.150, 257.628 233.081 C 258.798 233.037, 260.354 232.278, 261.086 231.396 C 261.819 230.514, 263.449 229.400, 264.709 228.921 C 265.969 228.441, 267 227.422, 267 226.656 C 267 225.375, 260.644 219.308, 252 212.336 C 246.774 208.121, 246.466 207.772, 242.766 201.914 C 235.600 190.568, 232.682 183.043, 232.522 175.500 C 232.136 157.310, 236.933 148.358, 246.184 150.007 C 249.524 150.602, 249.926 150.431, 250.495 148.166 C 250.983 146.221, 250.499 145.131, 248.311 143.243 C 245.017 140.401, 235.205 134.517, 232.134 133.543 C 230.960 133.170, 230 132.232, 230 131.458 C 230 130.684, 228.677 129.367, 227.061 128.531 C 223.624 126.754, 221 123.346, 221 120.660 C 221 119.617, 219.669 117.248, 218.042 115.395 C 214.744 111.639, 212.639 105.286, 213.524 101.761 C 213.944 100.086, 213.395 98.781, 211.536 97.034 L 208.968 94.621 202.419 98.061 L 195.870 101.500 196.499 107.602 C 197.127 113.704, 197.127 113.705, 194.032 114.987 C 192.329 115.692, 190.691 116.024, 190.391 115.724 C 189.515 114.848, 181.949 70.621, 182.448 69.295 C 182.698 68.633, 184.647 67.200, 186.780 66.112 L 190.657 64.134 207.004 80.504 C 220.623 94.141, 223.147 97.118, 222.132 98.341 C 220.668 100.105, 221.557 104.391, 223.764 106.209 C 225.140 107.342, 225.248 107.164, 224.647 104.750 C 224.270 103.237, 224.366 102, 224.860 102 C 226.249 102, 228.300 107.747, 227.712 109.993 C 227.267 111.694, 227.669 111.995, 230.344 111.965 C 232.080 111.946, 237.100 111.280, 241.500 110.485 C 245.900 109.690, 249.725 109.031, 250 109.021 C 250.275 109.011, 248.934 109.790, 247.020 110.752 C 242.032 113.257, 238.834 118.456, 239.203 123.456 C 239.484 127.265, 239.871 127.704, 246.500 131.739 C 254.527 136.625, 256.916 136.646, 261.321 131.869 C 264.054 128.905, 264.360 126.736, 261.774 128.665 C 259.465 130.388, 255.661 129.305, 252.808 126.112 C 248.043 120.778, 249.916 114.669, 256.706 113.395 C 259.886 112.799, 260.659 113.065, 262.728 115.471 C 264.675 117.734, 265.051 119.155, 264.820 123.371 C 264.508 129.067, 266.144 132.134, 271.500 135.898 C 273.150 137.057, 276.630 139.917, 279.232 142.253 C 284.572 147.045, 284.754 147.754, 285.230 165.615 C 285.418 172.672, 285.844 175.600, 286.639 175.301 C 287.340 175.036, 287.927 176.433, 288.165 178.936 C 288.390 181.294, 288.122 183.006, 287.526 183.015 C 286.962 183.024, 287.175 183.467, 288 184 C 289 184.646, 289.083 184.974, 288.250 184.985 C 287.563 184.993, 287 185.871, 287 186.935 C 287 187.999, 286.477 190.137, 285.839 191.685 C 285.200 193.233, 284.745 194.822, 284.827 195.215 C 284.909 195.609, 284.572 196.996, 284.077 198.299 C 283.545 199.697, 283.544 201.247, 284.073 202.083 C 284.787 203.212, 284.972 203.118, 284.985 201.622 C 284.993 200.590, 287.336 196.594, 290.191 192.743 L 295.382 185.741 297.586 188.506 C 298.799 190.026, 301.063 194.432, 302.619 198.295 C 304.174 202.158, 308.496 209.726, 312.223 215.113 C 315.950 220.500, 319 225.534, 319 226.300 C 319 227.067, 318.100 228.732, 317 230 C 315.900 231.268, 315 232.462, 315 232.653 C 315 232.844, 316.688 232.939, 318.750 232.864 C 321.184 232.775, 321.690 232.573, 320.192 232.287 C 316.994 231.676, 317.900 229.916, 322.823 227.175 C 325.121 225.896, 326.992 224.321, 326.982 223.675 C 326.952 221.765, 321.285 213.909, 315.674 208 C 310.634 202.692, 308.451 198.915, 302.384 185 C 299.874 179.242, 299.508 177.068, 299.180 165.960 C 298.958 158.421, 299.269 151.714, 299.962 149.143 C 301.052 145.092, 301.269 144.900, 304.057 145.512 C 306.783 146.111, 307 145.947, 307 143.275 C 307 138.968, 300.739 129.728, 290.486 118.902 C 287.655 115.914, 284.664 109.352, 285.510 107.984 C 285.825 107.474, 285.293 105.851, 284.328 104.378 C 282.430 101.481, 282.223 100.658, 281.787 94.302 C 281.598 91.542, 280.973 89.966, 279.963 89.701 C 278.958 89.438, 278.014 87.085, 277.234 82.899 C 271.966 54.621, 272.093 54.760, 270.024 75 C 268.480 90.099, 267.872 92, 264.585 92 C 262.415 92, 261.264 90.295, 254.969 77.750 C 248.107 64.074, 245.075 59.061, 246.350 63.500 C 246.666 64.600, 247.371 68.200, 247.918 71.500 C 248.465 74.800, 249.564 81.100, 250.361 85.500 C 251.158 89.900, 251.683 93.633, 251.527 93.795 C 251.371 93.957, 249.997 94.182, 248.474 94.295 C 245.751 94.497, 245.677 94.352, 244.012 85.500 C 240.735 68.078, 239.810 62.467, 239.656 59.067 C 239.510 55.858, 239.749 55.581, 243.318 54.818 C 245.486 54.355, 247.864 54.400, 248.818 54.921 C 249.743 55.426, 253.200 61.270, 256.500 67.907 C 259.800 74.545, 262.786 79.981, 263.135 79.988 C 263.710 79.999, 264.795 73.397, 266.511 59.452 C 266.853 56.676, 267.441 53.905, 267.818 53.294 C 268.696 51.873, 275.166 50.715, 276.559 51.729 C 277.142 52.153, 278.379 56.663, 279.309 61.750 C 284.232 88.679, 284.329 89.088, 285.731 88.550 C 286.627 88.206, 287.779 89.501, 289.032 92.261 L 290.956 96.500 290.968 92.500 C 290.974 90.300, 290.058 83.325, 288.933 77 C 287.808 70.675, 286.004 60.100, 284.926 53.500 C 283.847 46.900, 282.532 40.487, 282.004 39.250 C 281.010 36.923, 278.962 36.675, 269 37.670 M 194 48.500 C 192.625 49.286, 191.950 49.929, 192.500 49.929 C 193.050 49.929, 194.625 49.286, 196 48.500 C 197.375 47.714, 198.050 47.071, 197.500 47.071 C 196.950 47.071, 195.375 47.714, 194 48.500 M 191.801 84.250 C 192.600 88.787, 193.608 92.888, 194.040 93.363 C 194.871 94.276, 203 90.183, 203 88.852 C 203 87.853, 191.975 76, 191.046 76 C 190.661 76, 191.001 79.713, 191.801 84.250 M 218.578 103 C 220.660 107.346, 221 107.736, 221 105.777 C 221 104.922, 220.078 103.159, 218.951 101.861 L 216.901 99.500 218.578 103 M 100.325 109.250 C 89.408 126.506, 82.975 137.308, 83.375 137.709 C 83.620 137.954, 85.324 135.685, 87.160 132.668 C 88.997 129.650, 93.607 122.078, 97.405 115.840 C 105.462 102.609, 105.240 103, 104.698 103 C 104.467 103, 102.499 105.813, 100.325 109.250 M 273.366 105.317 C 269.904 106.170, 269.065 106.881, 268.202 109.694 C 267.248 112.802, 267.511 113.553, 271.736 119.776 C 274.875 124.399, 278.093 127.671, 282.034 130.248 C 287.685 133.941, 287.819 133.974, 291.384 132.484 C 295.337 130.832, 295.781 129.893, 293.502 128.002 C 290.317 125.358, 284 114.676, 284 111.933 C 284 110.372, 283.478 107.948, 282.839 106.547 C 281.582 103.788, 280.267 103.617, 273.366 105.317 M 255 109 C 256.970 110.273, 259.287 110.273, 258.500 109 C 258.160 108.450, 256.896 108.007, 255.691 108.015 C 253.910 108.028, 253.781 108.212, 255 109 M 298.523 109.974 C 296.807 111.871, 296.808 112.059, 298.548 114.724 C 302.174 120.281, 310.386 129.999, 311.429 129.968 C 313.103 129.918, 315.546 127.739, 317 125 C 318.179 122.779, 318.156 122.642, 316.790 123.767 C 314.939 125.294, 312.257 124.447, 309.399 121.434 C 306.450 118.324, 302.661 112.006, 303.338 111.328 C 303.863 110.804, 301.663 108, 300.726 108 C 300.497 108, 299.506 108.888, 298.523 109.974 M 212.245 118.237 C 207.036 121.362, 207.009 124.223, 212.135 129.833 C 215.925 133.981, 217.409 134.836, 223.395 136.327 C 227.188 137.271, 230.472 137.861, 230.695 137.639 C 230.917 137.417, 228.839 134.915, 226.078 132.080 C 223.018 128.938, 220.657 125.440, 220.033 123.121 C 219.469 121.029, 218.219 118.635, 217.254 117.801 C 215.677 116.437, 215.172 116.480, 212.245 118.237 M 186.071 136.752 C 179.528 140.088, 176.618 146.842, 178.287 154.816 C 179.033 158.383, 178.884 159.470, 177.427 161.081 C 175.702 162.986, 175.765 163.025, 180.292 162.854 C 182.837 162.758, 184.686 162.301, 184.401 161.839 C 184.115 161.378, 184.561 161, 185.391 161 C 186.221 161, 187.316 161.743, 187.825 162.651 C 188.534 163.919, 189.615 164.162, 192.480 163.697 C 200.178 162.448, 204.990 156.724, 204.996 148.809 C 204.998 146.229, 204.631 143.890, 204.181 143.612 C 203.730 143.333, 203.552 144.398, 203.783 145.977 C 204.015 147.557, 203.695 150.394, 203.072 152.282 C 201.983 155.581, 201.757 155.708, 197.310 155.523 C 193.649 155.370, 192.191 154.760, 190.340 152.609 C 187.947 149.827, 187.191 144.618, 189.016 143.490 C 189.575 143.144, 189.803 142.491, 189.523 142.037 C 189.242 141.583, 190.841 140.481, 193.075 139.587 C 196.965 138.030, 197.261 138.049, 200.061 140.044 C 202.253 141.604, 202.837 141.739, 202.394 140.583 C 201.504 138.264, 195.649 135, 192.382 135.002 C 190.797 135.002, 187.957 135.790, 186.071 136.752 M 250.695 151.363 C 247.117 158.919, 247.292 159.767, 251.069 153.180 C 252.747 150.254, 253.956 147.368, 253.755 146.765 C 253.554 146.163, 252.177 148.232, 250.695 151.363 M 145.559 178.567 C 143.296 180.238, 130.470 180.570, 129.490 178.984 C 129.144 178.425, 128.536 178.169, 128.138 178.415 C 127.098 179.058, 126.658 235, 127.692 235 C 128.167 235, 129.511 234.331, 130.679 233.512 C 132.630 232.146, 132.832 230.939, 133.152 218.716 C 133.555 203.313, 134.620 200.537, 140.555 199.424 C 143.845 198.807, 152.454 200.385, 157.400 202.512 C 159.058 203.225, 159.217 203.002, 158.655 200.762 C 158.042 198.319, 160.019 184.461, 161.511 180.750 C 162.137 179.192, 161.510 179, 155.807 179 C 152.283 179, 148.972 178.580, 148.450 178.067 C 147.861 177.489, 146.763 177.678, 145.559 178.567 M 65.308 186.788 C 64.464 187.325, 64.082 192.929, 63.998 206.023 C 63.830 232.276, 63.586 230, 66.566 230 C 71.940 230, 73 228.533, 73 221.101 L 73 214.272 77.640 213.636 C 80.191 213.286, 88.910 213, 97.015 213 C 105.119 213, 113.156 212.719, 114.875 212.375 C 117.908 211.768, 118 211.593, 118 206.395 L 118 201.039 96 201.679 L 74 202.319 74 195.359 C 74 191.280, 73.503 187.903, 72.800 187.200 C 71.461 185.861, 67.140 185.623, 65.308 186.788 M 273.337 205.459 C 273.684 209.562, 274.484 216.043, 275.114 219.862 L 276.261 226.805 279.225 225.772 C 282.526 224.621, 282.500 225.850, 279.548 211 C 277.845 202.427, 275.897 198, 273.830 198 C 273.043 198, 272.895 200.232, 273.337 205.459 M 146.344 215.453 C 146.724 216.443, 147.320 221.922, 147.669 227.627 C 148.057 233.971, 148.730 238.052, 149.402 238.134 C 150.006 238.207, 152.366 238.339, 154.646 238.427 L 158.791 238.586 159.896 229.975 C 161.721 215.746, 161.931 216.382, 155.167 215.675 C 151.959 215.340, 148.506 214.748, 147.494 214.359 C 146.014 213.791, 145.788 214.006, 146.344 215.453 M 180.500 223.182 C 176.694 225.174, 175.049 226.673, 175.015 228.182 C 175.003 228.733, 184.384 222.903, 185.917 221.407 C 187.002 220.347, 184.098 221.299, 180.500 223.182 M 273.376 232.201 C 272.446 233.705, 273.402 233.988, 276.550 233.138 L 279.500 232.342 276.726 231.805 C 275.201 231.510, 273.693 231.688, 273.376 232.201 M 268.589 235.856 C 268.298 236.326, 269.172 236.499, 270.530 236.239 C 271.889 235.979, 273 235.594, 273 235.383 C 273 234.610, 269.101 235.027, 268.589 235.856" stroke="none" fill="#c8b638" fill-rule="evenodd"/><path d="M 0 140.003 L 0 280.005 187.250 279.753 L 374.500 279.500 374.753 139.750 L 375.007 0 187.503 0 L 0 0 0 140.003 M 0.486 140.500 C 0.486 217.500, 0.605 248.852, 0.750 210.172 C 0.895 171.491, 0.895 108.491, 0.750 70.172 C 0.605 31.852, 0.486 63.500, 0.486 140.500 M 269 37.670 C 267.075 37.862, 257.400 38.713, 247.500 39.561 C 229.996 41.059, 229.274 41.211, 221.296 45.057 C 216.784 47.233, 212.701 49.711, 212.224 50.564 C 211.540 51.786, 210.968 51.255, 209.526 48.058 C 208.520 45.826, 207.427 43.966, 207.098 43.923 C 206.769 43.881, 205.600 43.680, 204.500 43.475 C 203.400 43.271, 201.375 43.686, 200 44.397 C 198.625 45.109, 192.325 48.417, 186 51.749 C 139.580 76.201, 141 75.368, 141 78.147 C 141 79.900, 144.262 86.508, 150.736 97.871 C 152.105 100.275, 152.827 102.075, 152.339 101.871 C 151.139 101.369, 135.157 90.510, 127.877 85.250 C 124.641 82.912, 121.419 81, 120.716 81 C 120.013 81, 116.916 82.577, 113.834 84.505 C 108.777 87.668, 107.232 89.593, 97.981 104.255 C 92.343 113.190, 84.866 124.945, 81.365 130.378 C 77.864 135.811, 75 141.029, 75 141.973 C 75 142.918, 75.788 144.384, 76.750 145.232 C 78.598 146.862, 101.705 161.729, 108.500 165.661 L 112.500 167.976 81.200 167.988 C 55.656 167.998, 49.379 168.270, 47.062 169.468 L 44.224 170.936 43.516 192.218 C 43.127 203.923, 42.964 220.119, 43.154 228.209 C 43.525 243.988, 43.685 244.457, 49.535 246.928 C 52.755 248.287, 123.706 244.508, 127.799 242.759 C 129.556 242.008, 138.710 241.565, 154 241.490 C 182.529 241.352, 199.712 240.255, 202.715 238.382 C 203.933 237.622, 206.295 237, 207.965 237 C 209.634 237, 211 236.662, 211.001 236.250 C 211.001 235.838, 208.749 235.656, 205.997 235.847 C 202.257 236.106, 200.095 235.664, 197.436 234.095 C 193.736 231.912, 190.731 231.885, 184 233.975 C 177.629 235.954, 166.935 236.927, 164.376 235.761 C 162.292 234.812, 162 234, 162 229.153 C 162 223.987, 165.277 209.732, 166.978 207.500 C 167.397 206.950, 167.964 203.562, 168.237 199.971 C 168.762 193.074, 171.927 185.349, 174.655 184.302 C 176.061 183.763, 179.183 183.665, 184.275 184.003 C 185.951 184.114, 185.945 184.270, 184.167 186.810 C 181.707 190.323, 177.972 200.466, 178.100 203.288 C 178.161 204.623, 178.556 203.992, 179.096 201.697 C 179.588 199.605, 182.016 194.147, 184.492 189.568 C 191.569 176.477, 191.992 175.590, 191.915 174 C 191.875 173.175, 191.638 172.993, 191.389 173.595 C 191.068 174.372, 189.428 174.299, 185.750 173.345 C 182.898 172.605, 178.481 172, 175.936 172 C 171.869 172, 165 169.719, 165 168.368 C 165 168.101, 165.520 168.203, 166.155 168.595 C 166.870 169.038, 167.038 168.870, 166.595 168.155 C 166.203 167.520, 165.418 167, 164.851 167 C 163.527 167, 160.077 162.883, 160.033 161.250 C 160.015 160.563, 159.538 160, 158.974 160 C 158.386 160, 158.600 161.259, 159.474 162.950 C 161.504 166.875, 161.461 167, 158.083 167 C 154.406 167, 153.770 165.326, 155.994 161.500 C 158.169 157.758, 159.363 151.923, 157.885 152.259 C 156.614 152.548, 153 146.264, 153 143.766 C 153 140.689, 151.583 141.891, 148.861 147.278 C 147.410 150.150, 145.605 152.625, 144.852 152.777 C 144.098 152.929, 140.560 151.174, 136.990 148.875 C 133.421 146.577, 128.250 143.269, 125.500 141.523 C 122.750 139.778, 117.463 136.419, 113.750 134.058 C 110.037 131.697, 107 129.108, 107 128.305 C 107 126.076, 119.023 105.997, 120.342 106.022 C 120.979 106.034, 122.507 106.822, 123.739 107.772 C 126.243 109.705, 126.313 109.468, 120.212 119.699 L 117.112 124.898 121.907 127.848 L 126.702 130.798 130.435 124.417 L 134.168 118.036 137.084 119.544 C 138.688 120.373, 139.990 121.377, 139.977 121.776 C 139.965 122.174, 138.451 125.289, 136.613 128.699 L 133.272 134.898 138.463 138.344 L 143.654 141.790 146.769 136.145 C 152.076 126.530, 152.310 126.318, 155.365 128.319 C 156.798 129.259, 157.881 130.809, 157.770 131.764 C 157.475 134.305, 160.267 142.837, 160.733 140.817 C 160.946 139.892, 160.420 137.780, 159.564 136.124 C 158.708 134.468, 158.406 132.867, 158.894 132.565 C 159.993 131.886, 162.454 135.569, 163.361 139.250 C 163.733 140.763, 164.528 142, 165.126 142 C 165.724 142, 165.936 141.275, 165.596 140.389 C 165.164 139.263, 165.410 138.943, 166.413 139.328 C 167.250 139.649, 168.507 138.875, 169.427 137.472 C 170.294 136.148, 171.587 135.288, 172.299 135.561 C 175.110 136.640, 188.402 132.902, 193.831 129.507 C 199.830 125.754, 202 126.061, 202 130.662 C 202 133.794, 205.140 139.879, 208.257 142.787 C 209.605 144.045, 213.811 146.094, 217.604 147.339 C 222.415 148.919, 224.396 150.042, 224.156 151.052 C 222.008 160.085, 221.032 166.583, 221.017 171.945 C 221.002 177.565, 220.656 178.750, 218.313 181.195 C 216.835 182.738, 216.123 184, 216.730 184 C 217.337 184, 218.062 183.539, 218.342 182.975 C 218.621 182.411, 218.726 182.524, 218.574 183.225 C 218.422 183.926, 217.357 184.467, 216.208 184.427 C 214.548 184.369, 214.305 184.701, 215.024 186.046 C 215.522 186.976, 215.645 188.021, 215.298 188.369 C 214.951 188.716, 215.218 189, 215.892 189 C 216.566 189, 216.826 189.472, 216.470 190.049 C 216.025 190.769, 215.395 190.742, 214.455 189.962 C 213.703 189.338, 212.505 189.169, 211.794 189.586 C 211.082 190.003, 211.357 189.366, 212.405 188.172 C 216.055 184.010, 212.225 186.033, 208.212 190.386 C 201.473 197.696, 200.741 199.920, 200.070 215.116 C 199.637 224.899, 199.050 229.262, 197.984 230.616 C 196.616 232.353, 196.636 232.393, 198.250 231.128 C 199.213 230.373, 200 230.012, 200 230.326 C 200 230.639, 201.350 230.425, 203 229.850 L 206 228.804 206.152 219.152 C 206.236 213.843, 206.409 209.050, 206.537 208.500 C 206.665 207.950, 206.821 205.561, 206.885 203.191 C 206.948 200.821, 207.408 199.134, 207.907 199.442 C 208.405 199.751, 208.579 199.108, 208.293 198.014 C 207.961 196.741, 208.365 195.797, 209.416 195.394 C 210.481 194.985, 210.850 194.103, 210.464 192.888 C 210.016 191.476, 210.256 191.161, 211.435 191.613 C 212.332 191.958, 213 191.689, 213 190.985 C 213 190.024, 213.332 190.031, 214.516 191.013 C 215.853 192.123, 215.740 192.769, 213.558 196.492 L 211.084 200.712 211.890 219.106 L 212.696 237.500 212.848 220.861 C 213.020 202.077, 212.415 203.697, 222.333 195.460 C 226.812 191.739, 228.527 190.843, 229.723 191.597 C 230.579 192.137, 233.686 197.061, 236.627 202.539 C 240.935 210.561, 243.535 213.983, 249.988 220.118 C 254.395 224.308, 258 228.333, 258 229.063 C 258 229.793, 256.791 231.653, 255.313 233.195 L 252.626 236 257.063 235.955 L 261.500 235.910 258.500 234.536 C 255.970 233.378, 255.833 233.150, 257.628 233.081 C 258.798 233.037, 260.354 232.278, 261.086 231.396 C 261.819 230.514, 263.449 229.400, 264.709 228.921 C 265.969 228.441, 267 227.422, 267 226.656 C 267 225.375, 260.644 219.308, 252 212.336 C 246.774 208.121, 246.466 207.772, 242.766 201.914 C 235.600 190.568, 232.682 183.043, 232.522 175.500 C 232.136 157.310, 236.933 148.358, 246.184 150.007 C 249.524 150.602, 249.926 150.431, 250.495 148.166 C 250.983 146.221, 250.499 145.131, 248.311 143.243 C 245.017 140.401, 235.205 134.517, 232.134 133.543 C 230.960 133.170, 230 132.232, 230 131.458 C 230 130.684, 228.677 129.367, 227.061 128.531 C 223.624 126.754, 221 123.346, 221 120.660 C 221 119.617, 219.669 117.248, 218.042 115.395 C 214.744 111.639, 212.639 105.286, 213.524 101.761 C 213.944 100.086, 213.395 98.781, 211.536 97.034 L 208.968 94.621 202.419 98.061 L 195.870 101.500 196.499 107.602 C 197.127 113.704, 197.127 113.705, 194.032 114.987 C 192.329 115.692, 190.691 116.024, 190.391 115.724 C 189.515 114.848, 181.949 70.621, 182.448 69.295 C 182.698 68.633, 184.647 67.200, 186.780 66.112 L 190.657 64.134 207.004 80.504 C 220.623 94.141, 223.147 97.118, 222.132 98.341 C 220.668 100.105, 221.557 104.391, 223.764 106.209 C 225.140 107.342, 225.248 107.164, 224.647 104.750 C 224.270 103.237, 224.366 102, 224.860 102 C 226.249 102, 228.300 107.747, 227.712 109.993 C 227.267 111.694, 227.669 111.995, 230.344 111.965 C 232.080 111.946, 237.100 111.280, 241.500 110.485 C 245.900 109.690, 249.725 109.031, 250 109.021 C 250.275 109.011, 248.934 109.790, 247.020 110.752 C 242.032 113.257, 238.834 118.456, 239.203 123.456 C 239.484 127.265, 239.871 127.704, 246.500 131.739 C 254.527 136.625, 256.916 136.646, 261.321 131.869 C 264.054 128.905, 264.360 126.736, 261.774 128.665 C 259.465 130.388, 255.661 129.305, 252.808 126.112 C 248.043 120.778, 249.916 114.669, 256.706 113.395 C 259.886 112.799, 260.659 113.065, 262.728 115.471 C 264.675 117.734, 265.051 119.155, 264.820 123.371 C 264.508 129.067, 266.144 132.134, 271.500 135.898 C 273.150 137.057, 276.630 139.917, 279.232 142.253 C 284.572 147.045, 284.754 147.754, 285.230 165.615 C 285.418 172.672, 285.844 175.600, 286.639 175.301 C 287.340 175.036, 287.927 176.433, 288.165 178.936 C 288.390 181.294, 288.122 183.006, 287.526 183.015 C 286.962 183.024, 287.175 183.467, 288 184 C 289 184.646, 289.083 184.974, 288.250 184.985 C 287.563 184.993, 287 185.871, 287 186.935 C 287 187.999, 286.477 190.137, 285.839 191.685 C 285.200 193.233, 284.745 194.822, 284.827 195.215 C 284.909 195.609, 284.572 196.996, 284.077 198.299 C 283.545 199.697, 283.544 201.247, 284.073 202.083 C 284.787 203.212, 284.972 203.118, 284.985 201.622 C 284.993 200.590, 287.336 196.594, 290.191 192.743 L 295.382 185.741 297.586 188.506 C 298.799 190.026, 301.063 194.432, 302.619 198.295 C 304.174 202.158, 308.496 209.726, 312.223 215.113 C 315.950 220.500, 319 225.534, 319 226.300 C 319 227.067, 318.100 228.732, 317 230 C 315.900 231.268, 315 232.462, 315 232.653 C 315 232.844, 316.688 232.939, 318.750 232.864 C 321.184 232.775, 321.690 232.573, 320.192 232.287 C 316.994 231.676, 317.900 229.916, 322.823 227.175 C 325.121 225.896, 326.992 224.321, 326.982 223.675 C 326.952 221.765, 321.285 213.909, 315.674 208 C 310.634 202.692, 308.451 198.915, 302.384 185 C 299.874 179.242, 299.508 177.068, 299.180 165.960 C 298.958 158.421, 299.269 151.714, 299.962 149.143 C 301.052 145.092, 301.269 144.900, 304.057 145.512 C 306.783 146.111, 307 145.947, 307 143.275 C 307 138.968, 300.739 129.728, 290.486 118.902 C 287.655 115.914, 284.664 109.352, 285.510 107.984 C 285.825 107.474, 285.293 105.851, 284.328 104.378 C 282.430 101.481, 282.223 100.658, 281.787 94.302 C 281.598 91.542, 280.973 89.966, 279.963 89.701 C 278.958 89.438, 278.014 87.085, 277.234 82.899 C 271.966 54.621, 272.093 54.760, 270.024 75 C 268.480 90.099, 267.872 92, 264.585 92 C 262.415 92, 261.264 90.295, 254.969 77.750 C 248.107 64.074, 245.075 59.061, 246.350 63.500 C 246.666 64.600, 247.371 68.200, 247.918 71.500 C 248.465 74.800, 249.564 81.100, 250.361 85.500 C 251.158 89.900, 251.683 93.633, 251.527 93.795 C 251.371 93.957, 249.997 94.182, 248.474 94.295 C 245.751 94.497, 245.677 94.352, 244.012 85.500 C 240.735 68.078, 239.810 62.467, 239.656 59.067 C 239.510 55.858, 239.749 55.581, 243.318 54.818 C 245.486 54.355, 247.864 54.400, 248.818 54.921 C 249.743 55.426, 253.200 61.270, 256.500 67.907 C 259.800 74.545, 262.786 79.981, 263.135 79.988 C 263.710 79.999, 264.795 73.397, 266.511 59.452 C 266.853 56.676, 267.441 53.905, 267.818 53.294 C 268.696 51.873, 275.166 50.715, 276.559 51.729 C 277.142 52.153, 278.379 56.663, 279.309 61.750 C 284.232 88.679, 284.329 89.088, 285.731 88.550 C 286.627 88.206, 287.779 89.501, 289.032 92.261 L 290.956 96.500 290.968 92.500 C 290.974 90.300, 290.058 83.325, 288.933 77 C 287.808 70.675, 286.004 60.100, 284.926 53.500 C 283.847 46.900, 282.532 40.487, 282.004 39.250 C 281.010 36.923, 278.962 36.675, 269 37.670 M 194 48.500 C 192.625 49.286, 191.950 49.929, 192.500 49.929 C 193.050 49.929, 194.625 49.286, 196 48.500 C 197.375 47.714, 198.050 47.071, 197.500 47.071 C 196.950 47.071, 195.375 47.714, 194 48.500 M 191.801 84.250 C 192.600 88.787, 193.608 92.888, 194.040 93.363 C 194.871 94.276, 203 90.183, 203 88.852 C 203 87.853, 191.975 76, 191.046 76 C 190.661 76, 191.001 79.713, 191.801 84.250 M 218.578 103 C 220.660 107.346, 221 107.736, 221 105.777 C 221 104.922, 220.078 103.159, 218.951 101.861 L 216.901 99.500 218.578 103 M 100.325 109.250 C 89.408 126.506, 82.975 137.308, 83.375 137.709 C 83.620 137.954, 85.324 135.685, 87.160 132.668 C 88.997 129.650, 93.607 122.078, 97.405 115.840 C 105.462 102.609, 105.240 103, 104.698 103 C 104.467 103, 102.499 105.813, 100.325 109.250 M 273.366 105.317 C 269.904 106.170, 269.065 106.881, 268.202 109.694 C 267.248 112.802, 267.511 113.553, 271.736 119.776 C 274.875 124.399, 278.093 127.671, 282.034 130.248 C 287.685 133.941, 287.819 133.974, 291.384 132.484 C 295.337 130.832, 295.781 129.893, 293.502 128.002 C 290.317 125.358, 284 114.676, 284 111.933 C 284 110.372, 283.478 107.948, 282.839 106.547 C 281.582 103.788, 280.267 103.617, 273.366 105.317 M 255 109 C 256.970 110.273, 259.287 110.273, 258.500 109 C 258.160 108.450, 256.896 108.007, 255.691 108.015 C 253.910 108.028, 253.781 108.212, 255 109 M 298.523 109.974 C 296.807 111.871, 296.808 112.059, 298.548 114.724 C 302.174 120.281, 310.386 129.999, 311.429 129.968 C 313.103 129.918, 315.546 127.739, 317 125 C 318.179 122.779, 318.156 122.642, 316.790 123.767 C 314.939 125.294, 312.257 124.447, 309.399 121.434 C 306.450 118.324, 302.661 112.006, 303.338 111.328 C 303.863 110.804, 301.663 108, 300.726 108 C 300.497 108, 299.506 108.888, 298.523 109.974 M 212.245 118.237 C 207.036 121.362, 207.009 124.223, 212.135 129.833 C 215.925 133.981, 217.409 134.836, 223.395 136.327 C 227.188 137.271, 230.472 137.861, 230.695 137.639 C 230.917 137.417, 228.839 134.915, 226.078 132.080 C 223.018 128.938, 220.657 125.440, 220.033 123.121 C 219.469 121.029, 218.219 118.635, 217.254 117.801 C 215.677 116.437, 215.172 116.480, 212.245 118.237 M 186.071 136.752 C 179.528 140.088, 176.618 146.842, 178.287 154.816 C 179.033 158.383, 178.884 159.470, 177.427 161.081 C 175.702 162.986, 175.765 163.025, 180.292 162.854 C 182.837 162.758, 184.686 162.301, 184.401 161.839 C 184.115 161.378, 184.561 161, 185.391 161 C 186.221 161, 187.316 161.743, 187.825 162.651 C 188.534 163.919, 189.615 164.162, 192.480 163.697 C 200.178 162.448, 204.990 156.724, 204.996 148.809 C 204.998 146.229, 204.631 143.890, 204.181 143.612 C 203.730 143.333, 203.552 144.398, 203.783 145.977 C 204.015 147.557, 203.695 150.394, 203.072 152.282 C 201.983 155.581, 201.757 155.708, 197.310 155.523 C 193.649 155.370, 192.191 154.760, 190.340 152.609 C 187.947 149.827, 187.191 144.618, 189.016 143.490 C 189.575 143.144, 189.803 142.491, 189.523 142.037 C 189.242 141.583, 190.841 140.481, 193.075 139.587 C 196.965 138.030, 197.261 138.049, 200.061 140.044 C 202.253 141.604, 202.837 141.739, 202.394 140.583 C 201.504 138.264, 195.649 135, 192.382 135.002 C 190.797 135.002, 187.957 135.790, 186.071 136.752 M 250.695 151.363 C 247.117 158.919, 247.292 159.767, 251.069 153.180 C 252.747 150.254, 253.956 147.368, 253.755 146.765 C 253.554 146.163, 252.177 148.232, 250.695 151.363 M 145.559 178.567 C 143.296 180.238, 130.470 180.570, 129.490 178.984 C 129.144 178.425, 128.536 178.169, 128.138 178.415 C 127.098 179.058, 126.658 235, 127.692 235 C 128.167 235, 129.511 234.331, 130.679 233.512 C 132.630 232.146, 132.832 230.939, 133.152 218.716 C 133.555 203.313, 134.620 200.537, 140.555 199.424 C 143.845 198.807, 152.454 200.385, 157.400 202.512 C 159.058 203.225, 159.217 203.002, 158.655 200.762 C 158.042 198.319, 160.019 184.461, 161.511 180.750 C 162.137 179.192, 161.510 179, 155.807 179 C 152.283 179, 148.972 178.580, 148.450 178.067 C 147.861 177.489, 146.763 177.678, 145.559 178.567 M 65.308 186.788 C 64.464 187.325, 64.082 192.929, 63.998 206.023 C 63.830 232.276, 63.586 230, 66.566 230 C 71.940 230, 73 228.533, 73 221.101 L 73 214.272 77.640 213.636 C 80.191 213.286, 88.910 213, 97.015 213 C 105.119 213, 113.156 212.719, 114.875 212.375 C 117.908 211.768, 118 211.593, 118 206.395 L 118 201.039 96 201.679 L 74 202.319 74 195.359 C 74 191.280, 73.503 187.903, 72.800 187.200 C 71.461 185.861, 67.140 185.623, 65.308 186.788 M 273.337 205.459 C 273.684 209.562, 274.484 216.043, 275.114 219.862 L 276.261 226.805 279.225 225.772 C 282.526 224.621, 282.500 225.850, 279.548 211 C 277.845 202.427, 275.897 198, 273.830 198 C 273.043 198, 272.895 200.232, 273.337 205.459 M 146.344 215.453 C 146.724 216.443, 147.320 221.922, 147.669 227.627 C 148.057 233.971, 148.730 238.052, 149.402 238.134 C 150.006 238.207, 152.366 238.339, 154.646 238.427 L 158.791 238.586 159.896 229.975 C 161.721 215.746, 161.931 216.382, 155.167 215.675 C 151.959 215.340, 148.506 214.748, 147.494 214.359 C 146.014 213.791, 145.788 214.006, 146.344 215.453 M 180.500 223.182 C 176.694 225.174, 175.049 226.673, 175.015 228.182 C 175.003 228.733, 184.384 222.903, 185.917 221.407 C 187.002 220.347, 184.098 221.299, 180.500 223.182 M 273.376 232.201 C 272.446 233.705, 273.402 233.988, 276.550 233.138 L 279.500 232.342 276.726 231.805 C 275.201 231.510, 273.693 231.688, 273.376 232.201 M 268.589 235.856 C 268.298 236.326, 269.172 236.499, 270.530 236.239 C 271.889 235.979, 273 235.594, 273 235.383 C 273 234.610, 269.101 235.027, 268.589 235.856" stroke="none" fill="#e8eef1" fill-rule="evenodd"/></svg>